<?xml version="1.0" encoding="UTF-8"?>
<svg version="1.1" xmlns="http://www.w3.org/2000/svg" width="711" height="168">
<path d="M0 0 C7.30323303 5.43496412 10.11886229 13.67492409 11.59545898 22.34545898 C12.39006798 29.51751234 12.17522408 36.73174127 12.09765625 43.9375 C12.08760215 45.5735622 12.07848061 47.20963042 12.0703125 48.84570312 C12.05021947 52.81407565 12.01103952 56.78159595 11.97265625 60.75 C6.36265625 60.75 0.75265625 60.75 -5.02734375 60.75 C-5.52234375 56.79 -5.52234375 56.79 -6.02734375 52.75 C-6.37925781 53.22050781 -6.73117187 53.69101563 -7.09375 54.17578125 C-10.45879512 58.41942822 -13.54431768 61.6553671 -19.02734375 62.75 C-29.5259746 63.7256581 -39.64987493 62.60429267 -48.02734375 55.75 C-54.64202989 49.68376774 -57.78774778 42.38212559 -58.41015625 33.4609375 C-58.823396 22.88065246 -58.01649157 12.51631944 -51.33984375 3.8125 C-38.95685993 -9.07462566 -14.45382792 -8.91180141 0 0 Z M-37.02734375 7.75 C-38.49894468 9.63755111 -38.49894468 9.63755111 -39.33984375 11.6875 C-39.64535156 12.33589844 -39.95085937 12.98429687 -40.265625 13.65234375 C-43.57602972 22.76868907 -43.37188496 35.54545245 -40.1484375 44.69140625 C-37.6581106 49.26423648 -33.90571581 52.12387598 -29.02734375 53.75 C-22.88070195 54.5142361 -17.91985966 54.14576026 -12.78515625 50.5078125 C-5.66294798 43.38560423 -4.78099445 33.97071024 -4.77636719 24.42236328 C-4.89780264 16.89888518 -6.67398091 11.26558596 -12.02734375 5.75 C-15.66708842 3.32918622 -19.10977823 3.41783998 -23.40234375 3.375 C-25.33207031 3.33246094 -25.33207031 3.33246094 -27.30078125 3.2890625 C-31.62961938 3.82449531 -33.69774607 4.97614776 -37.02734375 7.75 Z " fill="#006BB4" transform="translate(509.02734375,48.25)"/>
<path d="M0 0 C8.90873368 5.76246305 13.75958206 12.58910949 16.34765625 22.94140625 C18.18763676 33.07899117 16.83619402 43.32300599 11.34765625 52.19140625 C5.8922511 59.59038326 -0.88584051 63.83186653 -9.96484375 65.31640625 C-21.78664707 66.38036855 -33.47722009 65.42554171 -42.96484375 57.69140625 C-50.37004882 50.42232627 -53.17846522 41.90265592 -53.27734375 31.75390625 C-53.30532926 22.61715699 -51.289034 14.2341327 -45.578125 6.87890625 C-34.51836033 -3.83273023 -13.8642684 -7.0177161 0 0 Z M-31.96484375 10.31640625 C-38.06676313 19.16795596 -38.21795994 30.93584788 -36.46875 41.23828125 C-35.00948952 46.67959151 -33.10357704 50.46642179 -28.96484375 54.31640625 C-23.43064858 57.14785494 -16.63308826 57.36537343 -10.68359375 55.6640625 C-5.36442453 53.3518117 -3.30546585 50.55939976 -0.96484375 45.31640625 C0.39832968 40.79392479 0.25768519 36.31615573 0.28515625 31.62890625 C0.30578125 30.76845703 0.32640625 29.90800781 0.34765625 29.02148438 C0.38569473 22.71185204 -0.02031743 15.61631497 -4.41723633 10.6887207 C-11.98493446 4.23867806 -24.31803296 3.66700556 -31.96484375 10.31640625 Z " fill="#006BB4" transform="translate(688.96484375,45.68359375)"/>
<path d="M0 0 C5.61 0 11.22 0 17 0 C17.01458252 1.35158203 17.02916504 2.70316406 17.04418945 4.09570312 C17.10239116 9.1353532 17.17962268 14.17456668 17.26245117 19.21386719 C17.29559781 21.39022711 17.32366134 23.56667088 17.34643555 25.74316406 C17.38017038 28.88122103 17.4324962 32.01851675 17.48828125 35.15625 C17.49467117 36.12115356 17.5010611 37.08605713 17.50764465 38.0802002 C17.65616796 44.98594846 18.47278114 50.91995201 23 56.4375 C27.63132058 60.05571921 33.40646016 59.44075171 39 59 C43.73753183 57.36339809 46.35315791 55.25385335 49 51 C50.87859306 44.86388351 51.33195277 39.20488898 51.4140625 32.8125 C51.43342865 31.86938965 51.4527948 30.9262793 51.4727478 29.95458984 C51.532083 26.96981588 51.5787433 23.98500237 51.625 21 C51.66322224 18.9648278 51.70227638 16.92967103 51.7421875 14.89453125 C51.83774622 9.92981431 51.92194559 4.96502174 52 0 C57.28 0 62.56 0 68 0 C68.09964557 5.92239601 68.17183264 11.84429294 68.21972656 17.76733398 C68.23971393 19.77783724 68.26691326 21.78828333 68.30175781 23.79858398 C68.73275393 49.32242735 68.73275393 49.32242735 59.97265625 60.2109375 C50.4635232 68.83506212 39.16429773 69.51474757 27 69 C18.78395092 68.14670113 12.34996521 64.76113918 6.6875 58.75 C0.29439032 50.77598548 -0.15761327 40.46835211 -0.09765625 30.6640625 C-0.0962413 29.78471039 -0.09482635 28.90535828 -0.09336853 27.99935913 C-0.08779877 25.20787058 -0.0752519 22.41646406 -0.0625 19.625 C-0.05748109 17.72526158 -0.05291887 15.8255219 -0.04882812 13.92578125 C-0.03783925 9.28382286 -0.02059557 4.64192531 0 0 Z " fill="#006BB4" transform="translate(523,42)"/>
<path d="M0 0 C0.97259766 0.61488281 0.97259766 0.61488281 1.96484375 1.2421875 C2.92197266 1.82613281 2.92197266 1.82613281 3.8984375 2.421875 C11.34781223 7.83668932 14.81119542 16.96837185 16.46484375 25.7421875 C17.65390508 36.00243832 15.77376138 45.61355653 9.96484375 54.2421875 C4.60246539 60.44703428 -3.00447572 63.99481848 -11.03515625 65.2421875 C-22.50313107 65.97840317 -33.21596686 65.44931536 -42.32421875 57.828125 C-49.83326247 50.86768722 -53.09516569 43.21395039 -53.51000977 32.95776367 C-53.62608149 22.73105548 -52.04309702 13.41520086 -44.734375 5.73828125 C-33.51620123 -4.13886945 -13.54999235 -6.9059715 0 0 Z M-33.4609375 11.98828125 C-38.47039805 21.54377209 -38.56673589 34.48971055 -35.97265625 44.9296875 C-34.27931255 49.67753155 -31.28697685 52.62345254 -27.03515625 55.2421875 C-21.39832262 57.12113204 -15.27678451 56.98939692 -9.66015625 55.1171875 C-3.97961369 51.0596571 -1.56784763 46.95878173 -0.03515625 40.2421875 C0.2526366 37.27771505 0.29869128 34.34422554 0.27734375 31.3671875 C0.2731543 30.5728833 0.26896484 29.7785791 0.26464844 28.96020508 C0.10895592 20.89317966 -1.12467632 14.15266743 -7.03515625 8.2421875 C-10.68020134 5.82638478 -14.1143948 5.91005937 -18.41015625 5.8671875 C-20.33988281 5.82464844 -20.33988281 5.82464844 -22.30859375 5.78125 C-27.19702784 6.38589908 -30.33381495 8.15862706 -33.4609375 11.98828125 Z " fill="#006BB4" transform="translate(192.03515625,45.7578125)"/>
<path d="M0 0 C11.06668351 11.83877771 9.96075442 27.40322489 9.8125 42.5 C9.80245103 44.28515123 9.79332857 46.07030794 9.78515625 47.85546875 C9.76500727 52.19556005 9.72583275 56.53488043 9.6875 60.875 C4.0775 60.875 -1.5325 60.875 -7.3125 60.875 C-7.32708252 59.55371094 -7.34166504 58.23242188 -7.35668945 56.87109375 C-7.41490188 51.94325441 -7.49213317 47.01586106 -7.57495117 42.08837891 C-7.60809282 39.96052316 -7.63615787 37.83258177 -7.65893555 35.70458984 C-7.69267972 32.63602392 -7.74500568 29.56823518 -7.80078125 26.5 C-7.80717117 25.55697021 -7.8135611 24.61394043 -7.82014465 23.64233398 C-7.97076864 16.79126074 -8.77016942 10.79120273 -13.4375 5.4375 C-18.58545964 2.63969585 -23.8530303 2.37753337 -29.5625 3.5 C-33.82355787 5.06238789 -35.60779707 6.24297035 -38.3125 9.875 C-41.1260609 16.15590972 -41.77432597 22.1308655 -41.82421875 28.94140625 C-41.84216995 29.86090561 -41.86012115 30.78040497 -41.87861633 31.72776794 C-41.93229261 34.63096692 -41.96647681 37.53400561 -42 40.4375 C-42.03321084 42.41994398 -42.06770392 44.40236692 -42.10351562 46.38476562 C-42.187994 51.21472724 -42.25500712 56.04464486 -42.3125 60.875 C-47.5925 60.875 -52.8725 60.875 -58.3125 60.875 C-58.41217465 55.09502052 -58.48434583 49.31555312 -58.53222656 43.53491211 C-58.55220918 41.57290926 -58.57940484 39.61096495 -58.61425781 37.64916992 C-58.8615421 23.36122904 -58.90085857 11.63366127 -48.46875 0.75390625 C-35.58950644 -10.46876794 -13.50075387 -8.66086097 0 0 Z " fill="#006BB4" transform="translate(403.3125,48.125)"/>
<path d="M0 0 C5.48736247 3.94576231 8.6282652 8.34872935 11.3359375 14.4921875 C11.7690625 15.4203125 12.2021875 16.3484375 12.6484375 17.3046875 C13.71689726 22.25845549 13.3359375 27.42450325 13.3359375 32.4921875 C-3.1640625 32.4921875 -19.6640625 32.4921875 -36.6640625 32.4921875 C-33.7103008 43.03215534 -33.7103008 43.03215534 -27.1015625 50.8046875 C-18.84674998 54.85705001 -10.34127553 53.52302459 -1.6640625 51.4921875 C-1.1690625 54.4621875 -1.1690625 54.4621875 -0.6640625 57.4921875 C-2.07884385 58.14214047 -3.49597737 58.78697472 -4.9140625 59.4296875 C-5.70296875 59.78933594 -6.491875 60.14898437 -7.3046875 60.51953125 C-16.03042216 64.11672981 -25.07618343 62.9893862 -33.6640625 59.4921875 C-41.74554807 55.63411844 -47.6309019 49.6480619 -51.1015625 41.3671875 C-53.84246057 32.86095211 -54.11367955 22.96582225 -50.76171875 14.578125 C-46.2914716 6.08306458 -39.94310974 -0.17306817 -30.890625 -3.5390625 C-19.91822701 -6.78568985 -10.07545862 -5.7025323 0 0 Z M-32.9765625 10.3671875 C-35.42449548 14.90039671 -36.6640625 18.31868954 -36.6640625 23.4921875 C-25.4440625 23.4921875 -14.2240625 23.4921875 -2.6640625 23.4921875 C-3.97435509 14.17197469 -3.97435509 14.17197469 -9.42578125 6.875 C-17.88751752 0.99002036 -26.56291742 2.39346659 -32.9765625 10.3671875 Z " fill="#006BB5" transform="translate(57.6640625,48.5078125)"/>
<path d="M0 0 C7.26151742 5.27401802 11.13623903 11.65162035 13.1875 20.3125 C13.1875 24.2725 13.1875 28.2325 13.1875 32.3125 C-3.3125 32.3125 -19.8125 32.3125 -36.8125 32.3125 C-33.8587383 42.85246784 -33.8587383 42.85246784 -27.25 50.625 C-18.99518748 54.67736251 -10.48971303 53.34333709 -1.8125 51.3125 C-1.3175 54.2825 -1.3175 54.2825 -0.8125 57.3125 C-2.22728135 57.96245297 -3.64441487 58.60728722 -5.0625 59.25 C-5.85140625 59.60964844 -6.6403125 59.96929687 -7.453125 60.33984375 C-16.17885966 63.93704231 -25.22462093 62.8096987 -33.8125 59.3125 C-41.89398557 55.45443094 -47.7793394 49.4683744 -51.25 41.1875 C-53.99089807 32.68126461 -54.26211705 22.78613475 -50.91015625 14.3984375 C-46.4399091 5.90337708 -40.09154724 -0.35275567 -31.0390625 -3.71875 C-20.07707969 -6.9622956 -9.84750133 -6.09449071 0 0 Z M-33.125 10.1875 C-35.57293298 14.72070921 -36.8125 18.13900204 -36.8125 23.3125 C-25.5925 23.3125 -14.3725 23.3125 -2.8125 23.3125 C-4.12279259 13.99228719 -4.12279259 13.99228719 -9.57421875 6.6953125 C-18.03595502 0.81033286 -26.71135492 2.21377909 -33.125 10.1875 Z " fill="#006BB5" transform="translate(328.8125,48.6875)"/>
<path d="M0 0 C5.28 0 10.56 0 16 0 C16 10.89 16 21.78 16 33 C21.28 33 26.56 33 32 33 C32 35.97 32 38.94 32 42 C26.72 42 21.44 42 16 42 C16 61.8 16 81.6 16 102 C10.72 102 5.44 102 0 102 C0 82.2 0 62.4 0 42 C-5.28 42 -10.56 42 -16 42 C-16 39.03 -16 36.06 -16 33 C-10.72 33 -5.44 33 0 33 C0 22.11 0 11.22 0 0 Z " fill="#006BB4" transform="translate(424,7)"/>
<path d="M0 0 C4.33825535 2.45167938 8.65674207 5.56525622 11.8125 9.4375 C12.3075 11.9125 12.3075 11.9125 12.8125 14.4375 C9.5125 16.4175 6.2125 18.3975 2.8125 20.4375 C1.11979167 18.15885417 -0.57291667 15.88020833 -2.265625 13.6015625 C-4.89264048 10.64350036 -6.79556618 9.62337936 -10.703125 9.1015625 C-17.89938492 8.99875879 -23.27669147 9.88584736 -28.71875 14.828125 C-33.89239846 20.54320179 -34.61013341 26.347293 -34.4296875 33.765625 C-33.75921227 41.16248079 -29.48764366 46.55242783 -24.1875 51.4375 C-15.09531172 57.83221333 -4.79156049 57.77390214 5.8125 56.4375 C6.65039062 56.33953125 7.48828125 56.2415625 8.3515625 56.140625 C10.1737976 55.92169923 11.99356772 55.68235627 13.8125 55.4375 C13.8125 57.0875 13.8125 58.7375 13.8125 60.4375 C1.39021514 67.08422904 -13.54670809 69.99074708 -27.4375 66.3125 C-37.62324782 62.74087414 -43.43249043 56.90484857 -48.21875 47.38671875 C-51.70153952 38.82486118 -51.4519866 28.36307593 -48.75 19.625 C-44.88706692 10.53016457 -38.29075952 4.26450941 -29.3515625 0.27734375 C-20.99802618 -2.96455211 -8.38694409 -3.46127851 0 0 Z " fill="#006BB5" transform="translate(261.1875,43.5625)"/>
<path d="M0 0 C5.65437111 3.50032497 8.53246002 5.97372817 11.05078125 12.26953125 C6.59578125 15.73453125 6.59578125 15.73453125 2.05078125 19.26953125 C-0.52253901 16.69621099 -3.09310403 14.1222998 -5.63671875 11.51953125 C-9.5438011 7.71804572 -12.6330581 7.86713907 -17.921875 7.9296875 C-23.50364151 8.55628581 -28.77987546 10.64680669 -32.42578125 15.0546875 C-36.58811182 22.10669361 -36.83619927 29.28670658 -35.94921875 37.26953125 C-33.46716547 44.006533 -29.29518382 48.94739142 -22.94921875 52.26953125 C-22.3665625 52.57503906 -21.78390625 52.88054687 -21.18359375 53.1953125 C-10.93587785 57.73789245 0.39112323 56.38052736 11.05078125 54.26953125 C11.05078125 56.24953125 11.05078125 58.22953125 11.05078125 60.26953125 C8.69906282 61.08975737 6.34479615 61.90079665 3.98828125 62.70703125 C3.33150391 62.93712891 2.67472656 63.16722656 1.99804688 63.40429688 C-9.56195947 67.33356012 -23.62586275 68.49721303 -34.94921875 63.26953125 C-43.56224766 58.3147243 -49.31433998 50.81897066 -51.94921875 41.26953125 C-52.36221187 38.29664958 -52.42719497 35.39298404 -52.38671875 32.39453125 C-52.37914551 31.6051416 -52.37157227 30.81575195 -52.36376953 30.00244141 C-52.18798765 23.76539216 -51.17486836 18.69265466 -47.94921875 13.26953125 C-47.53671875 12.55539063 -47.12421875 11.84125 -46.69921875 11.10546875 C-37.21159441 -3.28768862 -15.16328239 -7.41141436 0 0 Z " fill="#006BB5" transform="translate(125.94921875,44.73046875)"/>
<path d="M0 0 C1.16208984 0.01353516 1.16208984 0.01353516 2.34765625 0.02734375 C4.23190843 0.05060612 6.11599832 0.0864636 8 0.125 C8 2.765 8 5.405 8 8.125 C7.01 8.15078125 6.02 8.1765625 5 8.203125 C-3.74005395 8.5350678 -10.72826094 9.08416575 -17.3125 15.3125 C-21.43817347 22.18862245 -22.45233107 29.06932068 -22.51171875 36.97265625 C-22.52966995 37.86995956 -22.54762115 38.76726288 -22.56611633 39.6917572 C-22.6197733 42.52362537 -22.65397034 45.35532942 -22.6875 48.1875 C-22.72071257 50.12176742 -22.7552058 52.0560133 -22.79101562 53.99023438 C-22.87547347 58.70170357 -22.94249553 63.41312789 -23 68.125 C-28.28 68.125 -33.56 68.125 -39 68.125 C-39.09970521 62.48743711 -39.17185967 56.8504 -39.21972656 51.2121582 C-39.23970419 49.29865566 -39.26689599 47.38521308 -39.30175781 45.47192383 C-39.55031092 31.46888044 -39.53343671 19.7268887 -29.2734375 9.06640625 C-20.86925087 1.88963519 -10.76232643 -0.24247876 0 0 Z " fill="#006BB4" transform="translate(633,40.875)"/>
<path d="M0 0 C3.78495275 3.35114728 5.06630313 7.39913504 7 12 C8.98 8.04 10.96 4.08 13 0 C13.66 0.33 14.32 0.66 15 1 C15.80633284 3.79567955 16.49938518 6.5388795 17.125 9.375 C17.30675781 10.15617188 17.48851562 10.93734375 17.67578125 11.7421875 C18.40177996 14.93003144 19 17.71535044 19 21 C17.68 21 16.36 21 15 21 C14.34 18.69 13.68 16.38 13 14 C10.98863724 16.55991624 9.37154504 19.04590299 8 22 C7.34 22 6.68 22 6 22 C4.68 19.03 3.36 16.06 2 13 C1.01 15.64 0.02 18.28 -1 21 C-2.32 20.67 -3.64 20.34 -5 20 C-4.35737498 17.04093596 -3.7110539 14.08276484 -3.0625 11.125 C-2.78889648 9.86236328 -2.78889648 9.86236328 -2.50976562 8.57421875 C-2.33251953 7.76855469 -2.15527344 6.96289062 -1.97265625 6.1328125 C-1.81031494 5.38918457 -1.64797363 4.64555664 -1.48071289 3.87939453 C-1 2 -1 2 0 0 Z " fill="#006BB4" transform="translate(226,136)"/>
<path d="M0 0 C0.78246094 -0.01417969 1.56492187 -0.02835938 2.37109375 -0.04296875 C4.5625 0.1875 4.5625 0.1875 7.5625 2.1875 C7.5625 3.1775 7.5625 4.1675 7.5625 5.1875 C6.5725 5.5175 5.5825 5.8475 4.5625 6.1875 C4.2325 5.8575 3.9025 5.5275 3.5625 5.1875 C0.10437831 4.85411404 0.10437831 4.85411404 -3.4375 5.1875 C-5.77046251 8.01467213 -5.77046251 8.01467213 -5.1875 11.25 C-4.6781756 14.286959 -4.6781756 14.286959 -2.4375 16.1875 C1.14593976 16.35427282 1.14593976 16.35427282 4.5625 16.1875 C4.5625 15.5275 4.5625 14.8675 4.5625 14.1875 C3.2425 13.8575 1.9225 13.5275 0.5625 13.1875 C0.5625 11.8675 0.5625 10.5475 0.5625 9.1875 C3.5325 9.1875 6.5025 9.1875 9.5625 9.1875 C9.19801402 17.57067757 9.19801402 17.57067757 6.4375 20.25 C2.84306872 21.42209716 0.32773578 21.64989738 -3.4375 21.1875 C-8.97596154 18.11057692 -8.97596154 18.11057692 -10.4375 15.1875 C-10.99262815 10.55536507 -11.0739242 7.20577873 -8.5625 3.1875 C-5.59597256 0.39547418 -3.9752392 0.03263743 0 0 Z " fill="#006BB4" transform="translate(465.4375,136.8125)"/>
<path d="M0 0 C2.31 1.98 4.62 3.96 7 6 C8.99702063 7.67023543 10.99599938 9.33814583 13 11 C13.33 7.7 13.66 4.4 14 1 C15.32 1 16.64 1 18 1 C18 7.93 18 14.86 18 22 C9 15.25 9 15.25 5 11 C4.67 14.3 4.34 17.6 4 21 C2.68 21 1.36 21 0 21 C0 14.07 0 7.14 0 0 Z " fill="#006AB5" transform="translate(510,136)"/>
<path d="M0 0 C4.61586002 3.95645145 8.80181 7.69941512 13 12 C13.33 8.37 13.66 4.74 14 1 C15.32 1 16.64 1 18 1 C18 7.93 18 14.86 18 22 C14.15718264 20.07859132 12.19568073 18.4073184 9.25 15.375 C8.45078125 14.55773437 7.6515625 13.74046875 6.828125 12.8984375 C6.22484375 12.27195313 5.6215625 11.64546875 5 11 C4.67 14.3 4.34 17.6 4 21 C2.68 21 1.36 21 0 21 C0 14.07 0 7.14 0 0 Z " fill="#006BB4" transform="translate(340,136)"/>
<path d="M0 0 C0.33 1.32 0.66 2.64 1 4 C-2 5 -2 5 -5 4 C-5.33 4.99 -5.66 5.98 -6 7 C-4.576875 7.433125 -4.576875 7.433125 -3.125 7.875 C0 9 0 9 2 11 C2.375 14.4375 2.375 14.4375 2 18 C-0.23320602 20.66266871 -1.6200117 20.95347082 -5.0625 21.375 C-8 21 -8 21 -9.875 19.6875 C-11 18 -11 18 -11 15 C-10.01 14.67 -9.02 14.34 -8 14 C-7.34 14.66 -6.68 15.32 -6 16 C-5.01 16 -4.02 16 -3 16 C-4.3363414 11.99097581 -6.49427032 11.19108105 -10 9 C-10.33 8.67 -10.66 8.34 -11 8 C-10.6875 4.5 -10.6875 4.5 -10 1 C-6.78548731 -0.60725635 -3.56387464 -0.05748185 0 0 Z " fill="#0069B6" transform="translate(293,137)"/>
<path d="M0 0 C0.66 0 1.32 0 2 0 C4.97 6.93 7.94 13.86 11 21 C9.35 21 7.7 21 6 21 C5.34 19.68 4.68 18.36 4 17 C2.02 17 0.04 17 -2 17 C-2.66 18.32 -3.32 19.64 -4 21 C-5.65 21 -7.3 21 -9 21 C-7.50640515 16.15713185 -5.54966433 11.68649104 -3.375 7.125 C-2.88773437 6.09246094 -2.88773437 6.09246094 -2.390625 5.0390625 C-1.59676528 3.35794781 -0.79880442 1.67877079 0 0 Z M0 10 C-0.33 10.99 -0.66 11.98 -1 13 C0.32 12.67 1.64 12.34 3 12 C2.67 11.34 2.34 10.68 2 10 C1.34 10 0.68 10 0 10 Z " fill="#006BB3" transform="translate(262,136)"/>
<path d="M0 0 C0.66 1.32 1.32 2.64 2 4 C-1.01031744 4.93423645 -1.86650268 5.04449911 -5 4 C-4.27170256 7.29621708 -4.27170256 7.29621708 -0.9375 8.75 C2 11 2 11 2.625 14.5625 C2 18 2 18 0.4375 20 C-3.02302669 21.41970326 -5.41516784 20.86301515 -9 20 C-9.66 19.34 -10.32 18.68 -11 18 C-11 17.01 -11 16.02 -11 15 C-10.01 14.67 -9.02 14.34 -8 14 C-7.34 14.66 -6.68 15.32 -6 16 C-5.01 16 -4.02 16 -3 16 C-3.73952107 12.7199677 -3.73952107 12.7199677 -7 11.125 C-10 9 -10 9 -11.0625 6.5 C-11 4 -11 4 -10.0625 1.6875 C-6.83426664 -0.95378184 -4.08676931 -0.26798487 0 0 Z " fill="#006BB4" transform="translate(163,137)"/>
<path d="M0 0 C3.96 0 7.92 0 12 0 C12 1.32 12 2.64 12 4 C9.69 4 7.38 4 5 4 C5 5.32 5 6.64 5 8 C7.31 8 9.62 8 12 8 C12 8.99 12 9.98 12 11 C9.69 11 7.38 11 5 11 C5 12.98 5 14.96 5 17 C7.31 17 9.62 17 12 17 C12 17.99 12 18.98 12 20 C8.04 20 4.08 20 0 20 C0 13.4 0 6.8 0 0 Z " fill="#006CB4" transform="translate(486,137)"/>
<path d="M0 0 C3.96 0 7.92 0 12 0 C12 1.32 12 2.64 12 4 C9.69 4 7.38 4 5 4 C5 5.32 5 6.64 5 8 C7.31 8 9.62 8 12 8 C12 8.99 12 9.98 12 11 C9.69 11 7.38 11 5 11 C5 12.98 5 14.96 5 17 C7.31 17 9.62 17 12 17 C12 17.99 12 18.98 12 20 C8.04 20 4.08 20 0 20 C0 13.4 0 6.8 0 0 Z " fill="#006CB4" transform="translate(393,137)"/>
<path d="M0 0 C2.01822917 0.06510417 4.03645833 0.13020833 6.0546875 0.1953125 C6.7146875 1.5153125 7.3746875 2.8353125 8.0546875 4.1953125 C5.04437006 5.12954895 4.18818482 5.23981161 1.0546875 4.1953125 C1.80016986 7.47404246 1.80016986 7.47404246 5.0546875 9.1328125 C8.0546875 11.1953125 8.0546875 11.1953125 9.1171875 13.1328125 C9.02041918 16.32616714 8.13813097 17.78633098 6.0546875 20.1953125 C2.28293324 21.2925501 0.16371344 21.76404375 -3.3828125 19.9453125 C-4.9453125 18.1953125 -4.9453125 18.1953125 -4.9453125 15.1953125 C-3.6253125 14.8653125 -2.3053125 14.5353125 -0.9453125 14.1953125 C-0.6153125 14.8553125 -0.2853125 15.5153125 0.0546875 16.1953125 C1.0446875 16.1953125 2.0346875 16.1953125 3.0546875 16.1953125 C3.3846875 15.2053125 3.7146875 14.2153125 4.0546875 13.1953125 C2.91 12.7621875 2.91 12.7621875 1.7421875 12.3203125 C-0.9453125 11.1953125 -0.9453125 11.1953125 -3.9453125 9.1953125 C-4.2578125 5.6953125 -4.2578125 5.6953125 -3.9453125 2.1953125 C-1.9453125 0.1953125 -1.9453125 0.1953125 0 0 Z " fill="#006CB4" transform="translate(115.9453125,136.8046875)"/>
<path d="M0 0 C2.01822917 0.06510417 4.03645833 0.13020833 6.0546875 0.1953125 C6.7146875 1.5153125 7.3746875 2.8353125 8.0546875 4.1953125 C5.04437006 5.12954895 4.18818482 5.23981161 1.0546875 4.1953125 C1.78298494 7.49152958 1.78298494 7.49152958 5.1171875 8.9453125 C8.0546875 11.1953125 8.0546875 11.1953125 8.6796875 14.7578125 C8.0546875 18.1953125 8.0546875 18.1953125 6.4921875 20.1953125 C3.03166081 21.61501576 0.63951966 21.05832765 -2.9453125 20.1953125 C-3.6053125 19.5353125 -4.2653125 18.8753125 -4.9453125 18.1953125 C-4.9453125 17.2053125 -4.9453125 16.2153125 -4.9453125 15.1953125 C-3.6253125 14.8653125 -2.3053125 14.5353125 -0.9453125 14.1953125 C-0.6153125 14.8553125 -0.2853125 15.5153125 0.0546875 16.1953125 C1.0446875 16.1953125 2.0346875 16.1953125 3.0546875 16.1953125 C3.3846875 15.2053125 3.7146875 14.2153125 4.0546875 13.1953125 C2.91 12.7621875 2.91 12.7621875 1.7421875 12.3203125 C-0.9453125 11.1953125 -0.9453125 11.1953125 -3.9453125 9.1953125 C-4.2578125 5.6953125 -4.2578125 5.6953125 -3.9453125 2.1953125 C-1.9453125 0.1953125 -1.9453125 0.1953125 0 0 Z " fill="#006BB5" transform="translate(590.9453125,136.8046875)"/>
<path d="M0 0 C3.96 0 7.92 0 12 0 C12 1.32 12 2.64 12 4 C9.36 4 6.72 4 4 4 C4 5.32 4 6.64 4 8 C6.64 8 9.28 8 12 8 C12 8.99 12 9.98 12 11 C9.36 11 6.72 11 4 11 C4 12.98 4 14.96 4 17 C6.64 17 9.28 17 12 17 C12 17.99 12 18.98 12 20 C8.04 20 4.08 20 0 20 C0 13.4 0 6.8 0 0 Z " fill="#006BB4" transform="translate(200,137)"/>
<path d="M0 0 C3.63 0 7.26 0 11 0 C11 1.32 11 2.64 11 4 C8.69 4 6.38 4 4 4 C4 5.32 4 6.64 4 8 C6.31 8 8.62 8 11 8 C11 8.99 11 9.98 11 11 C8.69 11 6.38 11 4 11 C4 12.98 4 14.96 4 17 C6.31 17 8.62 17 11 17 C11 17.99 11 18.98 11 20 C7.37 20 3.74 20 0 20 C0 13.4 0 6.8 0 0 Z " fill="#006BB4" transform="translate(564,137)"/>
<path d="M0 0 C4.62 0 9.24 0 14 0 C14 1.32 14 2.64 14 4 C12.35 4 10.7 4 9 4 C9 9.28 9 14.56 9 20 C7.68 20 6.36 20 5 20 C5 14.72 5 9.44 5 4 C3.35 4 1.7 4 0 4 C0 2.68 0 1.36 0 0 Z " fill="#006BB4" transform="translate(539,137)"/>
<path d="M0 0 C4.62 0 9.24 0 14 0 C14 1.32 14 2.64 14 4 C12.35 4 10.7 4 9 4 C9 9.28 9 14.56 9 20 C7.68 20 6.36 20 5 20 C5 14.72 5 9.44 5 4 C3.35 4 1.7 4 0 4 C0 2.68 0 1.36 0 0 Z " fill="#006BB4" transform="translate(369,137)"/>
<path d="M0 0 C4.62 0 9.24 0 14 0 C14 1.32 14 2.64 14 4 C12.35 4 10.7 4 9 4 C9 9.28 9 14.56 9 20 C7.68 20 6.36 20 5 20 C5 14.72 5 9.44 5 4 C3.35 4 1.7 4 0 4 C0 2.68 0 1.36 0 0 Z " fill="#006BB4" transform="translate(175,137)"/>
<path d="M0 0 C1.32 0 2.64 0 4 0 C4 5.61 4 11.22 4 17 C6.31 17 8.62 17 11 17 C11 17.99 11 18.98 11 20 C7.37 20 3.74 20 0 20 C0 13.4 0 6.8 0 0 Z " fill="#006BB4" transform="translate(417,137)"/>
<path d="M0 0 C1.32 0 2.64 0 4 0 C4 6.6 4 13.2 4 20 C2.68 20 1.36 20 0 20 C0 13.4 0 6.8 0 0 Z " fill="#006BB4" transform="translate(439,137)"/>
<path d="M0 0 C1.32 0 2.64 0 4 0 C4 6.6 4 13.2 4 20 C2.68 20 1.36 20 0 20 C0 13.4 0 6.8 0 0 Z " fill="#006BB4" transform="translate(323,137)"/>
<path d="M0 0 C1.32 0 2.64 0 4 0 C4 6.6 4 13.2 4 20 C2.68 20 1.36 20 0 20 C0 13.4 0 6.8 0 0 Z " fill="#006BB4" transform="translate(136,137)"/>
</svg>
