<?xml version="1.0" encoding="UTF-8"?>
<svg version="1.1" xmlns="http://www.w3.org/2000/svg" width="100" height="100">
<path d="M0 0 C1.08147308 -0.01260864 2.16294617 -0.02521729 3.27719116 -0.03820801 C4.44078156 -0.03011108 5.60437195 -0.02201416 6.80322266 -0.01367188 C8.0041153 -0.01749878 9.20500793 -0.02132568 10.44229126 -0.02526855 C12.98253212 -0.02799053 15.52280088 -0.02060956 18.06298828 -0.00390625 C21.94578867 0.01745984 25.82673063 -0.00368122 29.70947266 -0.02929688 C32.17822673 -0.02665292 34.64697966 -0.02152654 37.11572266 -0.01367188 C38.27526459 -0.0217688 39.43480652 -0.02986572 40.62948608 -0.03820801 C46.86074561 0.03401975 50.96229218 0.14111173 55.59228516 4.51757812 C58.5515828 8.78685109 57.92247186 13.64077961 57.90478516 18.64257812 C57.92089844 19.56167969 57.93701172 20.48078125 57.95361328 21.42773438 C57.95425781 22.30558594 57.95490234 23.1834375 57.95556641 24.08789062 C57.95854736 24.88984863 57.96152832 25.69180664 57.96459961 26.51806641 C57.84173584 27.17790527 57.71887207 27.83774414 57.59228516 28.51757812 C54.59228516 30.51757812 54.59228516 30.51757812 51.96728516 30.20507812 C49.59228516 29.51757812 49.59228516 29.51757812 48.59228516 28.51757812 C48.32157617 24.87804616 48.14582998 21.24514289 47.98681641 17.59960938 C48.16529421 13.7428472 48.16529421 13.7428472 46.59228516 10.51757812 C43.89573662 10.44438191 41.22537058 10.42515275 38.52978516 10.45507812 C37.77117188 10.45958984 37.01255859 10.46410156 36.23095703 10.46875 C34.35136644 10.48057132 32.47181617 10.49850735 30.59228516 10.51757812 C31.25228516 11.50757813 31.91228516 12.49757813 32.59228516 13.51757812 C32.83279419 16.38395691 32.83279419 16.38395691 32.81933594 19.91674805 C32.81962799 20.56092178 32.81992004 21.20509552 32.82022095 21.86878967 C32.81882899 23.99534636 32.80327454 26.12155149 32.78759766 28.24804688 C32.78386704 29.72349354 32.7810203 31.19894268 32.77902222 32.6743927 C32.77138957 36.55588635 32.75174433 40.43723009 32.72961426 44.31866455 C32.70914785 48.28013074 32.7000188 52.24162117 32.68994141 56.203125 C32.668498 63.9746856 32.63331896 71.74609175 32.59228516 79.51757812 C37.54228516 79.18757813 42.49228516 78.85757813 47.59228516 78.51757812 C47.64126953 76.95265625 47.69025391 75.38773437 47.74072266 73.77539062 C47.81574245 71.73110134 47.89129061 69.6868314 47.96728516 67.64257812 C47.99822266 66.61003906 48.02916016 65.5775 48.06103516 64.51367188 C48.09970703 63.52753906 48.13837891 62.54140625 48.17822266 61.52539062 C48.20964355 60.61418457 48.24106445 59.70297852 48.2734375 58.76416016 C48.59228516 56.51757812 48.59228516 56.51757812 50.59228516 54.51757812 C53.09228516 54.26757812 53.09228516 54.26757812 55.59228516 54.51757812 C58.61893313 57.5442261 57.88546394 60.48673547 57.91455078 64.625 C57.9097168 66.21151367 57.9097168 66.21151367 57.90478516 67.83007812 C57.92089844 68.87615234 57.93701172 69.92222656 57.95361328 71 C57.95425781 72.01255859 57.95490234 73.02511719 57.95556641 74.06835938 C57.95854736 74.99302002 57.96152832 75.91768066 57.96459961 76.87036133 C57.33282712 81.36236732 55.30710386 83.90128282 51.92822266 86.81445312 C47.77145377 88.93664427 44.7907232 88.98260415 40.21728516 88.76757812 C39.48123047 88.74953125 38.74517578 88.73148437 37.98681641 88.71289062 C36.1880678 88.66616988 34.38999805 88.59443996 32.59228516 88.51757812 C32.62193359 89.61199219 32.65158203 90.70640625 32.68212891 91.83398438 C32.59228516 95.51757812 32.59228516 95.51757812 31.15478516 98.45507812 C28.11234875 100.9038684 26.17536817 100.94962071 22.3449707 100.8581543 C16.73348068 100.16387238 11.51130475 98.1169721 6.21728516 96.20507812 C5.04294922 95.80095703 3.86861328 95.39683594 2.65869141 94.98046875 C-7.32851043 91.45456225 -7.32851043 91.45456225 -9.40771484 88.51757812 C-9.7089936 85.77988664 -9.82781439 83.26859114 -9.81176758 80.52954102 C-9.81863083 79.71622818 -9.82549408 78.90291534 -9.83256531 78.06495667 C-9.85088473 75.37320558 -9.84698848 72.6820345 -9.84130859 69.99023438 C-9.84586806 68.12080189 -9.85117293 66.2513711 -9.85719299 64.38194275 C-9.86613429 60.46199743 -9.86368956 56.54225573 -9.85375977 52.62231445 C-9.84227106 47.59707364 -9.86247479 42.57253559 -9.8916769 37.54738712 C-9.91001737 33.68606597 -9.90975072 29.82491388 -9.90403938 25.9635601 C-9.90388589 24.11078341 -9.90995316 22.25799545 -9.92233086 20.40526009 C-9.93719794 17.81472749 -9.92659593 15.22550129 -9.90942383 12.63500977 C-9.9190918 11.86864197 -9.92875977 11.10227417 -9.9387207 10.31268311 C-9.89172949 6.92982068 -9.64457328 4.86376405 -7.71434021 2.04258728 C-4.91614204 0.19257822 -3.33984757 0.01118699 0 0 Z " fill="#006AB4" transform="translate(9.40771484375,-0.517578125)"/>
<path d="M0 0 C4.58063325 1.90000716 7.87579148 6.10240019 11.33300781 9.55151367 C12.59371094 10.75710937 12.59371094 10.75710937 13.87988281 11.98706055 C14.67394531 12.77532227 15.46800781 13.56358398 16.28613281 14.37573242 C17.01477539 15.09204834 17.74341797 15.80836426 18.49414062 16.54638672 C20.58073483 19.59003128 20.65310672 21.24101301 20.08300781 24.86401367 C18.51000977 27.19750977 18.51000977 27.19750977 16.32128906 29.38745117 C15.13696289 30.57661133 15.13696289 30.57661133 13.92871094 31.78979492 C13.09275391 32.59803711 12.25679687 33.4062793 11.39550781 34.23901367 C10.57888672 35.07045898 9.76226562 35.9019043 8.92089844 36.75854492 C2.83283715 42.76280294 2.83283715 42.76280294 -0.56860352 43.22192383 C-2.91699219 42.86401367 -2.91699219 42.86401367 -4.91699219 40.86401367 C-5.06197204 38.28337239 -5.10376764 35.81457483 -5.04199219 33.23901367 C-5.03296875 32.53260742 -5.02394531 31.82620117 -5.01464844 31.09838867 C-4.99106822 29.35345269 -4.95519679 27.60869072 -4.91699219 25.86401367 C-5.51761475 25.86925049 -6.1182373 25.8744873 -6.73706055 25.87988281 C-9.44286057 25.90059381 -12.14864395 25.91365492 -14.85449219 25.92651367 C-15.80001953 25.93489258 -16.74554688 25.94327148 -17.71972656 25.9519043 C-19.0684082 25.95673828 -19.0684082 25.95673828 -20.44433594 25.96166992 C-21.69331665 25.96952515 -21.69331665 25.96952515 -22.9675293 25.97753906 C-24.91699219 25.86401367 -24.91699219 25.86401367 -25.91699219 24.86401367 C-26.10449219 21.92651367 -26.10449219 21.92651367 -25.91699219 18.86401367 C-23.91699219 16.86401367 -23.91699219 16.86401367 -21.94580078 16.63696289 C-21.16027832 16.64743652 -20.37475586 16.65791016 -19.56542969 16.66870117 C-18.71464844 16.67514648 -17.86386719 16.6815918 -16.98730469 16.68823242 C-15.653125 16.71336914 -15.653125 16.71336914 -14.29199219 16.73901367 C-12.94621094 16.75254883 -12.94621094 16.75254883 -11.57324219 16.76635742 C-9.35422633 16.78996397 -7.13574141 16.82289058 -4.91699219 16.86401367 C-4.95179687 15.8044043 -4.98660156 14.74479492 -5.02246094 13.65307617 C-5.05059617 12.26507116 -5.07789662 10.87704904 -5.10449219 9.48901367 C-5.12962891 8.7903418 -5.15476562 8.09166992 -5.18066406 7.37182617 C-5.20996094 5.34057617 -5.20996094 5.34057617 -4.91699219 1.86401367 C-1.91699219 -0.13598633 -1.91699219 -0.13598633 0 0 Z " fill="#006AB4" transform="translate(79.9169921875,20.135986328125)"/>
</svg>
