<?xml version="1.0" encoding="UTF-8"?>
<svg version="1.1" xmlns="http://www.w3.org/2000/svg" width="100" height="100">
<path d="M0 0 C4.75 0.75 4.75 0.75 7 3 C7.23046875 5.75 7.23046875 5.75 7.1875 9 C7.18105469 10.0725 7.17460937 11.145 7.16796875 12.25 C7 15 7 15 6 17 C6.84763916 16.98428955 6.84763916 16.98428955 7.71240234 16.96826172 C10.26655653 16.92675212 12.82063982 16.9006904 15.375 16.875 C16.26445313 16.85824219 17.15390625 16.84148438 18.0703125 16.82421875 C18.92109375 16.81777344 19.771875 16.81132812 20.6484375 16.8046875 C21.82672119 16.78897705 21.82672119 16.78897705 23.02880859 16.77294922 C25 17 25 17 27 19 C27.265625 22.23046875 27.265625 22.23046875 27.25 26.1875 C27.25773437 28.12689453 27.25773437 28.12689453 27.265625 30.10546875 C26.99840819 34.02333871 26.21399349 37.27678576 25 41 C24.649375 42.11375 24.29875 43.2275 23.9375 44.375 C23 47 23 47 22 48 C17.84130452 48.31224671 13.66895337 48.27866109 9.5 48.3125 C8.33984375 48.34150391 7.1796875 48.37050781 5.984375 48.40039062 C4.27507813 48.41295898 4.27507813 48.41295898 2.53125 48.42578125 C1.49548828 48.44036377 0.45972656 48.45494629 -0.60742188 48.4699707 C-4 48 -4 48 -13 44 C-13 36.08 -13 28.16 -13 20 C-11.02 19.34 -9.04 18.68 -7 18 C-2.59363625 12.94123774 -1.12602979 6.44907973 0 0 Z " fill="#006AB5" transform="translate(23,6)"/>
<path d="M0 0 C1.65418945 0.00966797 1.65418945 0.00966797 3.34179688 0.01953125 C10.21750651 0.15909789 13.86726029 1.06741011 20.6875 3.625 C20.6875 11.875 20.6875 20.125 20.6875 28.625 C18.7075 29.615 16.7275 30.605 14.6875 31.625 C12.96487283 33.88310858 12.96487283 33.88310858 11.875 36.5 C11.47667969 37.34304687 11.07835938 38.18609375 10.66796875 39.0546875 C9.70576128 41.57712779 9.130577 43.96653799 8.6875 46.625 C5.8125 46.75 5.8125 46.75 2.6875 46.625 C0.6875 44.625 0.6875 44.625 0.45703125 41.875 C0.47121094 40.8025 0.48539063 39.73 0.5 38.625 C0.50644531 37.5525 0.51289062 36.48 0.51953125 35.375 C0.6875 32.625 0.6875 32.625 1.6875 30.625 C-0.20935547 30.65980469 -0.20935547 30.65980469 -2.14453125 30.6953125 C-3.8046816 30.71407126 -5.46483833 30.73227135 -7.125 30.75 C-7.95837891 30.76675781 -8.79175781 30.78351563 -9.65039062 30.80078125 C-10.45283203 30.80722656 -11.25527344 30.81367187 -12.08203125 30.8203125 C-13.18961792 30.83602295 -13.18961792 30.83602295 -14.31958008 30.85205078 C-16.3125 30.625 -16.3125 30.625 -19.3125 28.625 C-20.42759828 19.38047556 -19.76227164 9.81240701 -14.14770508 2.11987305 C-10.19153251 -1.10264187 -4.84074036 -0.19598139 0 0 Z " fill="#006AB5" transform="translate(69.3125,45.375)"/>
</svg>
