<?xml version="1.0"?>
<svg width="1000" height="1000" xmlns="http://www.w3.org/2000/svg" xmlns:svg="http://www.w3.org/2000/svg" clip-rule="evenodd" fill-rule="evenodd" version="1.1">
 <g class="layer">
  <title>Layer 1</title>
  <g id="svg_1">
   <path d="m54.5,691.5c1.46,-1.3 2.8,-2.8 4,-4.5c-2.62,-6.04 -5.45,-11.87 -8.5,-17.5c-0.49,-1.63 -0.66,-3.3 -0.5,-5c-1,0 -2,0 -3,0c-1.18,-6.05 -2.68,-12.05 -4.5,-18c-0.67,-1.33 -1.33,-1.33 -2,0c-1.67,-7.07 -3.34,-14.07 -5,-21c-0.41,-0.46 -0.91,-0.79 -1.5,-1c-2.29,-8.58 -4.13,-17.24 -5.5,-26c-0.67,-1.33 -1.33,-1.33 -2,0c-1.8,-11.98 -3.47,-24.65 -5,-38c-0.32,-1.8 -0.98,-2.13 -2,-1c-0.67,-40.67 -0.67,-81.33 0,-122c0.67,2.67 1.33,2.67 2,0c1.45,-12.69 3.12,-25.36 5,-38c0.67,1.33 1.33,1.33 2,0c1.51,-8.73 3.35,-17.39 5.5,-26c0.59,-0.21 1.09,-0.54 1.5,-1c1.7,-6.7 3.53,-13.36 5.5,-20c2.53,-6.44 5.37,-12.78 8.5,-19c1.2,-3.61 2.2,-7.28 3,-11c0.33,0.33 0.67,0.67 1,1c2.35,-5.2 4.35,-10.54 6,-16c0.33,0.33 0.67,0.67 1,1c2.45,-4.79 4.45,-9.79 6,-15c0.67,1.33 1.33,1.33 2,0c1.95,-4.23 3.61,-8.56 5,-13c0.67,1.33 1.33,1.33 2,0c9.24,-17.52 19.9,-33.52 32,-48c4.44,-5.92 8.61,-11.92 12.5,-18c1.17,0.22 2.17,-0.11 3,-1c4.04,-4.82 7.71,-9.82 11,-15c1.18,0.22 2.18,-0.11 3,-1c3.44,-4.22 7.11,-8.22 11,-12c0.82,-0.89 1.82,-1.22 3,-1c0.82,-2.84 2.49,-5.17 5,-7c16.31,-14.36 32.97,-27.7 50,-40c2.95,-2.53 6.29,-4.2 10,-5c-0.15,-1.05 0.02,-2.05 0.5,-3c0.33,0.33 0.67,0.67 1,1c8.3,-5.7 16.8,-11.2 25.5,-16.5c2.87,-1.38 5.87,-2.22 9,-2.5c0,-1 0,-2 0,-3c4.22,-0.76 8.06,-2.42 11.5,-5c1.81,1.11 2.65,0.44 2.5,-2c15.15,-5.95 30.81,-11.78 47,-17.5c-0.33,-0.33 -0.67,-0.67 -1,-1c7.33,-1.64 14.66,-3.14 22,-4.5c0,-1 0,-2 0,-3c10.14,-1.13 20.14,-2.96 30,-5.5c-0.33,-0.33 -0.67,-0.67 -1,-1c4.19,-0.07 8.19,-0.74 12,-2c14.74,-1.5 29.4,-3.34 44,-5.5c29.34,-1.3 58.67,-1.13 88,0.5c-2.38,0.97 -2.04,1.64 1,2c10.05,0.67 20.05,1.84 30,3.5c12.79,3.34 25.79,6.18 39,8.5c0.46,0.41 0.79,0.91 1,1.5c7,2 14,4 21,6c0.21,0.59 0.54,1.09 1,1.5c5.99,1.64 11.99,3.14 18,4.5c0,1 0,2 0,3c5.85,0.7 11.52,2.2 17,4.5c-1.15,0.91 -0.99,1.75 0.5,2.5c1.9,-0.6 3.74,-0.1 5.5,1.5c1.63,0.49 3.3,0.66 5,0.5c-0.15,2.44 0.69,3.11 2.5,2c3.32,2.91 7.15,4.58 11.5,5c0,1 0,2 0,3c4.03,1.4 8.03,2.73 12,4c0,1 0,2 0,3c4.14,0.99 8.14,2.32 12,4c-0.15,1.05 0.02,2.05 0.5,3c0.33,-0.33 0.67,-0.67 1,-1c25.97,16.2 49.97,34.87 72,56c0.33,-0.33 0.67,-0.67 1,-1c1.42,3.59 3.92,5.92 7.5,7c1.18,3.03 3.01,5.7 5.5,8c0.33,-0.33 0.67,-0.67 1,-1c1.75,3.16 3.75,6.16 6,9c0.33,-0.33 0.67,-0.67 1,-1c1.12,1.92 1.96,3.92 2.5,6c1.17,-0.22 2.17,0.11 3,1c1.76,2.4 3.6,4.73 5.5,7c0.33,-0.33 0.67,-0.67 1,-1c0.52,1.02 1.35,1.68 2.5,2c3.82,-1.21 7.49,-2.71 11,-4.5c2.83,0.55 5.5,0.22 8,-1c-0.33,-0.33 -0.67,-0.67 -1,-1c5.79,-0.89 11.46,-2.23 17,-4c-0.33,-0.33 -0.67,-0.67 -1,-1c9.13,-1.49 18.13,-3.49 27,-6c-0.33,-0.33 -0.67,-0.67 -1,-1c6.35,-0.87 12.69,-1.87 19,-3c13.45,-3.94 27.11,-7.44 41,-10.5c11.76,-2.04 23.43,-4.2 35,-6.5c-0.33,-0.33 -0.67,-0.67 -1,-1c11.07,-1.36 22.07,-2.86 33,-4.5c-2.57,49.23 -4.74,98.56 -6.5,148c-0.33,-1 -0.67,-2 -1,-3c-0.33,1.67 -0.67,3.33 -1,5c-0.17,17.16 -1,34.16 -2.5,51c-19.69,-0.35 -39.36,0.15 -59,1.5c1.33,0.33 2.67,0.67 4,1c-12.33,0.5 -24.66,0.67 -37,0.5c3.22,11.41 5.72,23.07 7.5,35c0.32,1.8 0.98,2.13 2,1c1.09,8.99 2.09,17.99 3,27c0.86,1.59 1.53,3.25 2,5c0.33,6 0.67,12 1,18c0.33,-0.33 0.67,-0.67 1,-1c0.67,26 0.67,52 0,78c-0.33,-0.33 -0.67,-0.67 -1,-1c-0.33,6 -0.67,12 -1,18c-0.42,1.17 -1.09,2.17 -2,3c-0.83,9.35 -1.83,18.69 -3,28c-0.33,-0.33 -0.67,-0.67 -1,-1c-2.27,9.88 -4.44,19.88 -6.5,30c-0.59,0.21 -1.09,0.54 -1.5,1c-3.07,14.41 -7.07,28.41 -12,42c-0.67,-1.33 -1.33,-1.33 -2,0c-1.2,3.61 -2.2,7.28 -3,11c-0.33,-0.33 -0.67,-0.67 -1,-1c-0.33,2.33 -0.67,4.67 -1,7c-0.67,-1.33 -1.33,-1.33 -2,0c-3.02,8.21 -6.35,16.21 -10,24c-0.33,-0.33 -0.67,-0.67 -1,-1c-0.49,1.63 -0.66,3.3 -0.5,5c-1,0 -2,0 -3,0c-1.17,4.35 -2.5,8.68 -4,13c-1,0 -2,0 -3,0c-0.42,2.84 -1.42,5.51 -3,8c-3.2,3.39 -5.37,7.39 -6.5,12c-0.67,-1.33 -1.33,-1.33 -2,0c-2.13,3.1 -3.63,6.43 -4.5,10c-1,0 -2,0 -3,0c0.15,1.05 -0.02,2.05 -0.5,3c-6.25,8.13 -12.08,16.46 -17.5,25c-1,0 -2,0 -3,0c-1.33,3 -2.67,6 -4,9c-1.17,-0.22 -2.17,0.11 -3,1c-1.69,2.79 -3.86,5.12 -6.5,7c-3.79,3.95 -6.96,8.28 -9.5,13c-3.67,1 -6,3.33 -7,7c-3.67,1 -6,3.33 -7,7c-1.17,-0.22 -2.17,0.11 -3,1c-4.36,4.36 -9.03,8.36 -14,12c-2.19,1.51 -3.52,3.51 -4,6c-1.43,-0.08 -2.76,0.25 -4,1c-21.44,18.13 -44.44,33.8 -69,47c-1.54,0.95 -3.21,1.28 -5,1c0,1 0,2 0,3c-4.35,0.42 -8.18,2.09 -11.5,5c-1.81,-1.11 -2.65,-0.44 -2.5,2c-4.05,0.85 -8.05,2.02 -12,3.5c0.33,0.33 0.67,0.67 1,1c-7.53,2.45 -14.86,5.28 -22,8.5c-4.3,1.3 -8.64,2.47 -13,3.5c-6.88,3.35 -14.21,5.68 -22,7c-1.8,0.32 -2.13,0.98 -1,2c-9.68,1.63 -19.35,3.63 -29,6c0.33,0.33 0.67,0.67 1,1c-13.92,1.88 -27.92,3.55 -42,5c-0.81,0.31 -1.48,0.81 -2,1.5c-32.99,2.49 -65.99,2.65 -99,0.5c0.33,-0.33 0.67,-0.67 1,-1c-14.66,-1.9 -29.32,-3.9 -44,-6c-0.46,-0.41 -0.79,-0.91 -1,-1.5c-9.24,-2.32 -18.57,-3.98 -28,-5c0,-1 0,-2 0,-3c-7.34,-1.36 -14.67,-2.86 -22,-4.5c1.15,-0.91 0.99,-1.75 -0.5,-2.5c-0.33,0.33 -0.67,0.67 -1,1c-3.65,-1.76 -7.49,-3.09 -11.5,-4c-2.41,-0.59 -4.41,-1.75 -6,-3.5c-9.37,-3.49 -18.37,-6.65 -27,-9.5c0.15,-2.44 -0.69,-3.11 -2.5,-2c-3.44,-2.58 -7.28,-4.24 -11.5,-5c0,-1 0,-2 0,-3c-3.53,0.12 -6.37,-1.21 -8.5,-4c-0.33,0.33 -0.67,0.67 -1,1c-12.09,-7.95 -24.26,-15.62 -36.5,-23c-9.06,-6.89 -17.72,-13.56 -26,-20c-1.8,-1.49 -3.8,-2.49 -6,-3c-0.48,-2.49 -1.81,-4.49 -4,-6c-12.09,-9.17 -23.09,-19.5 -33,-31c-0.82,-0.89 -1.82,-1.22 -3,-1c-3.29,-5.18 -6.96,-10.18 -11,-15c-0.83,-0.89 -1.83,-1.22 -3,-1c-8.02,-10.86 -15.85,-21.86 -23.5,-33c-0.67,-1.33 -1.33,-1.33 -2,0c-5,-9.38 -10,-18.05 -15,-26c-0.33,-0.33 -0.67,-0.67 -1,-1c-2.83,2.69 -6,4.69 -9.5,6c0.15,1.05 -0.02,2.05 -0.5,3c-0.33,-0.33 -0.67,-0.67 -1,-1c-10.33,8.5 -20.5,17.16 -30.5,26c-1.29,0.6 -2.63,1.1 -4,1.5c0.33,0.33 0.67,0.67 1,1c-2.03,0.63 -3.7,1.8 -5,3.5c-1.55,0.95 -3.21,1.28 -5,1c-1.66,-9.48 -2.49,-19.14 -2.5,-29c-0.36,-3.04 -1.03,-3.38 -2,-1c-0.83,-3.71 -0.66,-7.38 0.5,-11c7.63,-8.07 15.29,-15.07 23,-21c2.19,-1.51 3.52,-3.51 4,-6c3.22,-1.22 5.89,-3.22 8,-6zm228,-568c-4.49,3.13 -9.49,5.13 -15,6c0,1 0,2 0,3c-4.04,0.55 -7.54,2.22 -10.5,5c-0.33,-0.33 -0.67,-0.67 -1,-1c-5.46,3.66 -10.96,7.32 -16.5,11c-1.54,0.95 -3.21,1.28 -5,1c0.22,1.18 -0.11,2.18 -1,3c-5.79,3.13 -11.29,6.8 -16.5,11c-1.15,0.92 -2.15,0.92 -3,0c-0.44,1.58 -1.27,2.91 -2.5,4c-9.87,6.32 -18.53,13.32 -26,21c-3.96,1.74 -7.46,4.74 -10.5,9c-0.33,-0.33 -0.67,-0.67 -1,-1c-4.39,4.95 -8.72,9.95 -13,15c-0.33,-0.33 -0.67,-0.67 -1,-1c-0.76,2.93 -2.59,4.6 -5.5,5c-3.29,5.18 -6.96,10.18 -11,15c-0.82,0.89 -1.82,1.22 -3,1c-3.32,6.19 -6.99,11.53 -11,16c-0.82,0.89 -1.83,1.22 -3,1c0.26,1.48 -0.07,2.81 -1,4c-6.46,8.29 -12.3,16.95 -17.5,26c-0.67,1.33 -1.33,1.33 -2,0c-0.66,2.79 -1.49,5.45 -2.5,8c-1,0 -2,0 -3,0c-4.43,7.87 -8.1,16.21 -11,25c-1,0 -2,0 -3,0c-1.19,4.77 -2.69,9.44 -4.5,14c-0.67,1.33 -1.33,1.33 -2,0c-1.63,5.85 -3.63,11.52 -6,17c-0.33,-0.33 -0.67,-0.67 -1,-1c-4.92,12.22 -8.92,24.89 -12,38c-0.41,0.46 -0.91,0.79 -1.5,1c-2.09,9.13 -4.25,18.13 -6.5,27c-0.33,-0.33 -0.67,-0.67 -1,-1c-1.11,7.65 -2.11,15.32 -3,23c-0.41,0.46 -0.91,0.79 -1.5,1c-6.64,47.11 -6.64,93.45 0,139c0.59,0.21 1.09,0.54 1.5,1c0.73,7.73 1.9,15.4 3.5,23c4.19,16.08 8.69,32.08 13.5,48c1.02,-1.13 1.68,-0.8 2,1c2.13,8.34 4.97,15.67 8.5,22c1.51,4.47 0.34,8.14 -3.5,11c-0.31,-0.81 -0.81,-1.48 -1.5,-2c-2.03,-3.31 -3.19,-7.31 -3.5,-12c-0.67,1.33 -1.33,1.33 -2,0c-4.98,-12.87 -9.65,-25.87 -14,-39c-1.52,-9.03 -3.85,-17.7 -7,-26c-1.3,-7.63 -2.3,-15.29 -3,-23c-0.33,0.33 -0.67,0.67 -1,1c-4.24,-24.52 -6.07,-49.35 -5.5,-74.5c-0.58,-25.17 1.26,-50 5.5,-74.5c0.33,0.33 0.67,0.67 1,1c1.99,-19.68 6.32,-38.68 13,-57c0.33,0.33 0.67,0.67 1,1c0.84,-4.69 1.67,-9.36 2.5,-14c1,0 2,0 3,0c-0.16,-2.36 0,-4.69 0.5,-7c0.33,0.33 0.67,0.67 1,1c0.33,-2 0.67,-4 1,-6c5.44,-11.89 10.61,-23.89 15.5,-36c1,0 2,0 3,0c0.91,-4.5 2.41,-8.83 4.5,-13c0.67,-1.33 1.33,-1.33 2,0c1.33,-4.16 3,-8.16 5,-12c0.67,-1.33 1.33,-1.33 2,0c1.27,-3.81 2.94,-7.48 5,-11c6.67,-8.68 12.84,-17.68 18.5,-27c1,0 2,0 3,0c0.98,-2.81 2.31,-5.48 4,-8c0.83,-0.89 1.82,-1.22 3,-1c1.84,-4.52 4.51,-8.52 8,-12c3.66,-3.33 7,-7 10,-11c0.82,-0.89 1.82,-1.22 3,-1c0.84,-2.69 2.34,-5.02 4.5,-7c0.67,-1.33 1.33,-1.33 2,0c1.42,-3.59 3.92,-5.92 7.5,-7c-0.22,-1.18 0.11,-2.18 1,-3c12.04,-11.1 24.04,-21.43 36,-31c7.25,-4.86 13.91,-9.7 20,-14.5c5.01,-2.68 10.01,-5.35 15,-8c0.63,-0.75 1.13,-1.58 1.5,-2.5c0.33,0.33 0.67,0.67 1,1c3.66,-2.66 7.32,-5.33 11,-8c0.72,0.95 1.55,1.12 2.5,0.5c1.44,-1.57 2.94,-3.07 4.5,-4.5c0.33,0.33 0.67,0.67 1,1c1.8,-1.64 3.8,-2.98 6,-4c0.33,0.33 0.67,0.67 1,1c0.48,-0.95 0.65,-1.95 0.5,-3c5.18,-0.76 9.34,-2.42 12.5,-5c1.61,1.12 2.78,0.62 3.5,-1.5c6.96,-2.81 13.96,-5.64 21,-8.5c2.24,-0.97 4.58,-1.31 7,-1c0,-1 0,-2 0,-3c6.9,-1.51 13.9,-2.84 21,-4c0,-1 0,-2 0,-3c8.29,-1.35 16.62,-2.85 25,-4.5c-1.13,-1.02 -0.8,-1.68 1,-2c11.6,-2.14 23.27,-3.81 35,-5c-1.33,-0.67 -1.33,-1.33 0,-2c21.31,-1.83 42.64,-3.33 64,-4.5c21.14,1.13 42.14,2.63 63,4.5c3.04,0.36 3.38,1.03 1,2c12.5,1.12 24.84,3.12 37,6c-0.33,0.33 -0.67,0.67 -1,1c2.67,0.33 5.33,0.67 8,1c10.26,2.69 20.26,5.69 30,9c11.97,4.47 23.97,9.3 36,14.5c0.61,1.98 1.61,2.31 3,1c0.79,0.74 1.45,1.58 2,2.5c5.41,1.02 10.08,3.35 14,7c6.74,3.61 13.74,6.78 21,9.5c0,1 0,2 0,3c6.94,1.6 12.94,4.93 18,10c3.84,0.44 6.18,2.44 7,6c1.79,-0.28 3.46,0.05 5,1c3.43,3.76 7.43,6.76 12,9c1.03,1.2 1.87,2.53 2.5,4c0.33,-0.33 0.67,-0.67 1,-1c16.58,13.15 33.24,28.48 50,46c2.16,1.98 3.66,4.31 4.5,7c1.17,-0.22 2.17,0.11 3,1c-4.03,0.76 -7.36,2.09 -10,4c-2.86,-6.34 -6.69,-12.01 -11.5,-17c-0.33,0.33 -0.67,0.67 -1,1c-6.05,-6.05 -12.05,-12.05 -18,-18c-0.33,0.33 -0.67,0.67 -1,1c-0.48,-0.95 -0.65,-1.95 -0.5,-3c-4.22,-2.21 -7.89,-5.21 -11,-9c-9.92,-6.91 -19.58,-14.24 -29,-22c-7.58,-4.46 -15.25,-8.96 -23,-13.5c-1.94,-0.91 -2.94,-2.41 -3,-4.5c-3.13,-0.28 -6.13,-1.12 -9,-2.5c-10.48,-6.63 -21.48,-12.47 -33,-17.5c-16.48,-6.07 -32.14,-12.07 -47,-18c-0.59,0.21 -1.09,0.54 -1.5,1c-6.56,-2.75 -13.39,-4.58 -20.5,-5.5c-0.46,-0.41 -0.79,-0.91 -1,-1.5c-12.02,-2.28 -24.02,-4.45 -36,-6.5c0.33,-0.33 0.67,-0.67 1,-1c-41.33,-3.33 -82.67,-3.33 -124,0c1.13,1.02 0.8,1.68 -1,2c-19.29,1.65 -37.79,5.82 -55.5,12.5c-2.31,-1.44 -4.14,-0.94 -5.5,1.5c-5.46,0.65 -10.46,2.32 -15,5c-5.97,1.83 -11.97,3.33 -18,4.5c0,1 0,2 0,3c-5.52,1.35 -10.86,3.02 -16,5zm371,36c2.46,1.39 5.13,2.56 8,3.5c1.94,0.91 2.94,2.41 3,4.5c3.97,0.13 7.14,1.8 9.5,5c0.33,-0.33 0.67,-0.67 1,-1c2.46,3.29 5.63,5.63 9.5,7c0.89,0.82 1.22,1.82 1,3c4.48,0.54 7.65,2.88 9.5,7c1.07,-0.78 2.24,-0.61 3.5,0.5c1.82,0.98 2.99,2.48 3.5,4.5c0.33,-0.33 0.67,-0.67 1,-1c4.99,4.48 10.15,8.81 15.5,13c1.35,1.02 2.02,2.36 2,4c3.67,1 6,3.33 7,7c3.9,2.21 7.56,4.88 11,8c1.41,1.87 2.58,3.87 3.5,6c0.67,-1.33 1.33,-1.33 2,0c0.48,0.95 0.65,1.95 0.5,3c-6.25,1.69 -12.59,3.02 -19,4c0,1 0,2 0,3c-6.33,1.33 -12.67,2.67 -19,4c0,1 0,2 0,3c-8.24,1.3 -15.9,3.97 -23,8c-3.37,0.42 -6.21,1.76 -8.5,4c-1.01,-0.84 -2.18,-1.17 -3.5,-1c0,1 0,2 0,3c-4,0.67 -8,1.33 -12,2c0.38,2.44 -0.29,3.11 -2,2c-4.57,3.11 -9.24,4.78 -14,5c0.15,2.44 -0.69,3.11 -2.5,2c-4.23,2.82 -8.73,4.82 -13.5,6c-4.49,3.13 -9.49,5.13 -15,6c0,1 0,2 0,3c-4.94,1.46 -9.94,2.96 -15,4.5c0.33,0.33 0.67,0.67 1,1c-5.58,2.51 -10.92,4.51 -16,6c1.33,0.67 1.33,1.33 0,2c-3.28,1.15 -6.61,1.98 -10,2.5c0.15,1.05 -0.02,2.05 -0.5,3c-1.05,-1.02 -2.22,-1.18 -3.5,-0.5c1.33,0.67 1.33,1.33 0,2c-11.55,5.89 -23.22,11.55 -35,17c-7.96,5.92 -16.62,10.42 -26,13.5c0,1 0,2 0,3c-3.8,1.9 -7.8,3.23 -12,4c0,1 0,2 0,3c-1.79,-0.29 -3.45,0.05 -5,1c-15.13,9.07 -30.13,18.4 -45,28c-1.19,0.93 -2.52,1.26 -4,1c0.15,2.44 -0.69,3.11 -2.5,2c-2.36,3.2 -5.53,4.87 -9.5,5c-0.82,3.56 -3.16,5.56 -7,6c-1.35,1.19 -2.52,2.52 -3.5,4c-0.33,-0.33 -0.67,-0.67 -1,-1c-6.18,4.42 -12.35,8.75 -18.5,13c-4.59,3.31 -9.59,6.81 -15,10.5c-1.29,0.49 -2.63,0.66 -4,0.5c0,1 0,2 0,3c-3.27,1.53 -6.6,2.87 -10,4c0.22,1.18 -0.11,2.18 -1,3c-25.49,16.8 -50.49,35.13 -75,55c-1.15,-9.65 -2.15,-19.32 -3,-29c1.21,-13.36 2.71,-27.36 4.5,-42c0.41,-0.46 0.91,-0.79 1.5,-1c1.63,-7.46 3.47,-14.79 5.5,-22c0.67,-1.33 1.33,-1.33 2,0c0.95,-5.55 2.62,-10.89 5,-16c0.67,-1.33 1.33,-1.33 2,0c1.4,-4.95 3.4,-9.62 6,-14c7.93,-11.6 16.6,-22.6 26,-33c0.33,0.33 0.67,0.67 1,1c0.63,-2.03 1.8,-3.7 3.5,-5c4.61,-2.61 8.61,-5.94 12,-10c1.67,-1.59 3.67,-2.25 6,-2c-0.02,-1.64 0.65,-2.98 2,-4c7.65,-4.16 15.15,-8.49 22.5,-13c0.41,0.46 0.91,0.79 1.5,1c4.73,-2.76 9.56,-5.43 14.5,-8c1.98,1.32 3.48,0.82 4.5,-1.5c6.51,-1.22 12.84,-3.06 19,-5.5c2.83,1.3 5.5,0.96 8,-1c6.81,-0.54 13.48,-1.37 20,-2.5c7,-0.67 14,-0.67 21,0c5.83,1.29 11.83,1.96 18,2c3.56,1.93 7.23,2.43 11,1.5c1,0.5 2,1 3,1.5c-0.33,0.33 -0.67,0.67 -1,1c10.31,1.54 19.97,4.7 29,9.5c6.44,-3.6 12.78,-7.43 19,-11.5c3.71,-2.36 7.71,-3.86 12,-4.5c0,-1 0,-2 0,-3c4.67,-1.33 9.33,-2.67 14,-4c0,-1 0,-2 0,-3c6.07,-0.09 8.07,-2.92 6,-8.5c-10.42,-5.79 -20.42,-12.12 -30,-19c-14,-6.36 -27.84,-12.86 -41.5,-19.5c-1.81,1.11 -2.65,0.44 -2.5,-2c-6.34,-0.53 -12.34,-2.19 -18,-5c-0.94,0.11 -1.77,0.44 -2.5,1c-0.37,-0.92 -0.87,-1.75 -1.5,-2.5c-6.06,-0.85 -12.06,-2.01 -18,-3.5c-0.21,-0.59 -0.54,-1.09 -1,-1.5c-8.8,-1.07 -17.47,-2.4 -26,-4c-9.05,-0.15 -18.05,-0.82 -27,-2c1.33,-0.33 2.67,-0.67 4,-1c-12,-0.67 -24,-0.67 -36,0c2.38,0.97 2.04,1.64 -1,2c-7.33,0.33 -14.67,0.67 -22,1c-8.53,1.6 -17.2,2.93 -26,4c-0.46,0.41 -0.79,0.91 -1,1.5c-5.94,1.49 -11.94,2.65 -18,3.5c0.33,0.33 0.67,0.67 1,1c-1.55,1.75 -3.22,1.91 -5,0.5c-5.66,2.81 -11.66,4.47 -18,5c0.15,2.44 -0.69,3.11 -2.5,2c-13.65,6.63 -27.49,13.13 -41.5,19.5c-7.26,4.3 -14.09,9.13 -20.5,14.5c-0.33,-0.33 -0.67,-0.67 -1,-1c-6.19,4.76 -12.19,9.76 -18,15c-0.33,-0.33 -0.67,-0.67 -1,-1c-4.96,4.78 -10.12,9.45 -15.5,14c-0.89,0.82 -1.22,1.82 -1,3c-1.62,-0.14 -2.79,0.53 -3.5,2c-0.33,-0.33 -0.67,-0.67 -1,-1c-1.64,2.97 -3.64,5.63 -6,8c-0.33,-0.33 -0.67,-0.67 -1,-1c-5.61,7.94 -11.94,15.27 -19,22c-2.86,3.96 -5.53,7.96 -8,12c-0.33,-0.33 -0.67,-0.67 -1,-1c-3.77,6.04 -7.1,11.7 -10,17c-0.67,1.33 -1.33,1.33 -2,0c-4.25,7.82 -8.25,15.82 -12,24c-0.67,1.33 -1.33,1.33 -2,0c-1.65,5.46 -3.65,10.8 -6,16c-0.33,-0.33 -0.67,-0.67 -1,-1c-4.94,11.6 -8.94,23.6 -12,36c-0.32,1.8 -0.98,2.13 -2,1c-1.52,9.54 -3.52,18.88 -6,28c-0.33,-0.33 -0.67,-0.67 -1,-1c-1.7,9.49 -2.7,19.16 -3,29c-0.31,0.81 -0.81,1.48 -1.5,2c-1.33,22 -1.33,44 0,66c0.59,0.21 1.09,0.54 1.5,1c0.75,9.69 1.75,19.36 3,29c0.33,-0.33 0.67,-0.67 1,-1c3.25,16.68 7.59,33.02 13,49c0.67,-1.33 1.33,-1.33 2,0c0.24,2.71 1.07,5.21 2.5,7.5c-7.82,7.47 -15.99,15.31 -24.5,23.5c-0.33,-0.33 -0.67,-0.67 -1,-1c-1.29,2.96 -3.29,5.29 -6,7c-1.69,-4.22 -3.02,-8.55 -4,-13c-1.02,1.13 -1.68,0.8 -2,-1c-1.76,-6.61 -4.09,-12.94 -7,-19c-1.85,-7.58 -3.69,-15.25 -5.5,-23c-0.59,-0.21 -1.09,-0.54 -1.5,-1c-2.26,-10.58 -3.92,-21.24 -5,-32c-0.67,1.33 -1.33,1.33 -2,0c-1.52,-12.29 -2.52,-24.62 -3,-37c-0.33,0.33 -0.67,0.67 -1,1c-0.67,-21 -0.67,-42 0,-63c0.33,0.33 0.67,0.67 1,1c0.13,-12.51 1.13,-24.85 3,-37c0.67,-1.33 1.33,-1.33 2,0c1.17,-10.83 2.84,-21.5 5,-32c0.67,-1.33 1.33,-1.33 2,0c1.37,-8.14 3.04,-16.14 5,-24c0.67,-1.33 1.33,-1.33 2,0c0.33,-2.67 0.67,-5.33 1,-8c12.45,-33.18 29.45,-65.52 51,-97c0.67,-1.33 1.33,-1.33 2,0c1.33,-3.5 3,-6.83 5,-10c2.24,-1.87 4.41,-4.54 6.5,-8c0.82,-0.89 1.82,-1.22 3,-1c0.91,-2.95 2.41,-5.61 4.5,-8c8.52,-9.12 16.69,-17.79 24.5,-26c3.44,-3.12 7.1,-5.79 11,-8c-0.22,-1.18 0.11,-2.18 1,-3c12.14,-11.32 25.14,-21.66 39,-31c1.19,-0.93 2.52,-1.26 4,-1c0,-1 0,-2 0,-3c6.5,-3 12.83,-6.33 19,-10c1.35,-1.19 2.52,-2.52 3.5,-4c0.33,0.33 0.67,0.67 1,1c3.44,-2.58 7.28,-4.24 11.5,-5c0,-1 0,-2 0,-3c3.31,-0.41 6.15,-1.74 8.5,-4c0.33,0.33 0.67,0.67 1,1c8.33,-4.02 16.5,-8.19 24.5,-12.5c4,-1 8,-2 12,-3c-1.13,-1.02 -0.8,-1.68 1,-2c6.2,-2.18 12.53,-3.68 19,-4.5c0,-1 0,-2 0,-3c8.36,-1.25 16.69,-2.75 25,-4.5c0.46,-0.41 0.79,-0.91 1,-1.5c6.94,-1.66 13.94,-2.99 21,-4c2.24,-2.26 4.74,-2.59 7.5,-1c2.8,-0.04 5.3,-0.88 7.5,-2.5c39.02,-3.48 78.02,-3.32 117,0.5c3.17,2.08 6.5,2.42 10,1c16.47,3.51 32.63,7.84 48.5,13c0.91,-1.15 1.75,-0.99 2.5,0.5c-0.33,0.33 -0.67,0.67 -1,1c4.74,0.68 9.4,1.68 14,3c11.06,5.02 22.39,9.85 34,14.5c8.98,4.56 17.98,9.06 27,13.5c1.53,1.03 2.86,2.2 4,3.5zm-341,377c-17.04,10.59 -34.71,21.42 -53,32.5c-3.09,2.63 -6.26,5.13 -9.5,7.5c-0.33,-0.33 -0.67,-0.67 -1,-1c-0.48,0.95 -0.65,1.95 -0.5,3c-7.4,2.57 -13.9,6.57 -19.5,12c-0.33,-0.33 -0.67,-0.67 -1,-1c-0.48,0.95 -0.65,1.95 -0.5,3c-8.58,4.11 -16.58,9.27 -24,15.5c-1.29,0.49 -2.63,0.66 -4,0.5c-1.02,3.34 -3.35,5.34 -7,6c-3.41,3.12 -6.91,6.12 -10.5,9c-0.33,-0.33 -0.67,-0.67 -1,-1c-25.2,19.26 -50.7,38.26 -76.5,57c-1.89,1.35 -3.39,3.02 -4.5,5c-0.33,-0.33 -0.67,-0.67 -1,-1c-0.48,0.95 -0.65,1.95 -0.5,3c-4.16,0.25 -7.16,2.25 -9,6c-8.45,6.19 -16.78,12.52 -25,19c-1.8,1.49 -3.8,2.49 -6,3c2.57,-3.42 5.4,-6.75 8.5,-10c12.21,-9.73 23.88,-20.73 35,-33c5.65,-4.43 11.48,-9.43 17.5,-15c0.83,-0.89 1.83,-1.22 3,-1c5.52,-8.09 12.52,-14.75 21,-20c3.31,-4.09 6.98,-7.75 11,-11c6.91,-4.9 13.24,-10.57 19,-17c0.82,-0.89 1.82,-1.22 3,-1c-0.15,-1.05 0.02,-2.05 0.5,-3c0.33,0.33 0.67,0.67 1,1c3.26,-2.76 6.43,-5.76 9.5,-9c0.82,-0.89 1.82,-1.22 3,-1c-0.15,-1.05 0.02,-2.05 0.5,-3c0.33,0.33 0.67,0.67 1,1c0.25,-1.12 0.75,-2.12 1.5,-3c14.64,-11.99 29.31,-23.99 44,-36c1.5,-2.33 3.33,-4.33 5.5,-6c0.33,0.33 0.67,0.67 1,1c6.44,-6.29 13.11,-12.29 20,-18c0.33,0.33 0.67,0.67 1,1c1.28,-2.65 3.28,-4.65 6,-6c0.33,0.33 0.67,0.67 1,1c0.92,-2.42 2.42,-4.42 4.5,-6c7.28,-4.78 14.11,-10.12 20.5,-16c0.33,0.33 0.67,0.67 1,1c1.3,-3.46 3.8,-5.13 7.5,-5c1.17,-4 3.84,-6.5 8,-7.5c6.18,-5.18 12.34,-10.35 18.5,-15.5c8.8,-5.04 17.3,-11.21 25.5,-18.5c1.29,-0.49 2.63,-0.66 4,-0.5c1.02,-3.34 3.35,-5.34 7,-6c1.35,-1.19 2.52,-2.52 3.5,-4c0.33,0.33 0.67,0.67 1,1c1.92,-2 3.92,-4 6,-6c0.33,0.33 0.67,0.67 1,1c0.48,-0.95 0.65,-1.95 0.5,-3c1.48,0.26 2.81,-0.07 4,-1c9.38,-6.58 18.55,-13.24 27.5,-20c0.33,0.33 0.67,0.67 1,1c6.04,-4.39 12.04,-8.72 18,-13c0.33,0.33 0.67,0.67 1,1c8.5,-6.63 17.33,-12.8 26.5,-18.5c1.29,-0.49 2.63,-0.66 4,-0.5c0,-1 0,-2 0,-3c3.02,0.43 5.36,-0.57 7,-3c1.55,-0.95 3.21,-1.29 5,-1c0,-1 0,-2 0,-3c3.65,-1.33 7.32,-2.66 11,-4c0,-1 0,-2 0,-3c4.03,-1.4 8.03,-2.73 12,-4c0,-1 0,-2 0,-3c1.79,0.29 3.45,-0.05 5,-1c5.7,-3.88 11.53,-7.55 17.5,-11c0.33,0.33 0.67,0.67 1,1c0.33,-1 0.67,-2 1,-3c0.33,0.33 0.67,0.67 1,1c8.17,-4.03 16.34,-8.86 24.5,-14.5c2.87,-1.38 5.87,-2.22 9,-2.5c0,-1 0,-2 0,-3c4.63,-1.33 9.3,-2.66 14,-4c0,-1 0,-2 0,-3c4.67,-1.33 9.33,-2.67 14,-4c0,-1 0,-2 0,-3c4.67,-1.33 9.33,-2.67 14,-4c0,-1 0,-2 0,-3c4.67,-1.33 9.33,-2.67 14,-4c0,-1 0,-2 0,-3c5.06,-1.19 10.06,-2.69 15,-4.5c-0.33,-0.33 -0.67,-0.67 -1,-1c7.48,-2.22 14.48,-5.39 21,-9.5c2.27,-0.81 4.6,-1.31 7,-1.5c-0.33,-0.33 -0.67,-0.67 -1,-1c1.35,-1.29 2.69,-1.46 4,-0.5c3.75,-3 8.09,-4.84 13,-5.5c-0.33,-0.33 -0.67,-0.67 -1,-1c1.49,-1.37 2.99,-1.54 4.5,-0.5c2.12,-2.15 4.62,-3.65 7.5,-4.5c1.97,-0.5 3.97,-0.66 6,-0.5c0,-1 0,-2 0,-3c11.88,-4 23.88,-7.84 36,-11.5c-0.33,-0.33 -0.67,-0.67 -1,-1c9.95,-2.67 18.95,-6 27,-10c4.6,-1.32 9.26,-2.32 14,-3c-1.15,-0.91 -0.99,-1.75 0.5,-2.5c0.33,0.33 0.67,0.67 1,1c13.07,-4.26 26.9,-8.43 41.5,-12.5c0.46,-0.41 0.79,-0.91 1,-1.5c5.26,-1.61 10.6,-2.95 16,-4c0.8,-2.23 2.14,-2.56 4,-1c1.71,-0.2 3.04,-1.04 4,-2.5c5.69,-0.86 11.36,-1.86 17,-3c-1.13,-1.02 -0.8,-1.68 1,-2c12.31,-2.03 24.31,-5.03 36,-9c17.41,-3.97 35.08,-7.47 53,-10.5c0.21,-0.59 0.54,-1.09 1,-1.5c7.02,-0.88 14.02,-1.88 21,-3c0.5,-0.5 1,-1 1.5,-1.5c-1.11,14.56 -1.78,29.23 -2,44c-0.33,1.67 -0.67,3.33 -1,5c-0.33,-0.67 -0.67,-1.33 -1,-2c-1.48,38.3 -3.32,76.64 -5.5,115c-29.94,1.19 -59.94,2.03 -90,2.5c-9.84,1.31 -19.84,1.98 -30,2c1.13,1.02 0.8,1.68 -1,2c-19.24,1.49 -38.57,3.16 -58,5c-0.67,0.67 -1.33,1.33 -2,2c-14.07,1.52 -28.07,3.18 -42,5c0.33,0.33 0.67,0.67 1,1c-12.32,2.16 -24.65,4.33 -37,6.5c-0.21,0.59 -0.54,1.09 -1,1.5c-6.68,1.08 -13.34,2.24 -20,3.5c-0.21,0.59 -0.54,1.09 -1,1.5c-9.3,1.83 -18.63,3.33 -28,4.5c0,1 0,2 0,3c-8.41,0.99 -16.74,2.49 -25,4.5c-7.53,3.56 -15.53,6.06 -24,7.5c-0.21,0.59 -0.54,1.09 -1,1.5c-6.71,1.49 -13.38,3.15 -20,5c-0.46,0.41 -0.79,0.91 -1,1.5c-13.54,3.18 -26.54,7.34 -39,12.5c-5.03,2.6 -10.2,5.1 -15.5,7.5c-0.41,-0.46 -0.91,-0.79 -1.5,-1c-3.99,3.39 -8.65,5.06 -14,5c0.15,2.44 -0.69,3.11 -2.5,2c-6.89,2.53 -13.39,5.69 -19.5,9.5c-3.67,0.95 -7.33,1.78 -11,2.5c0,1 0,2 0,3c-5.27,1.57 -10.6,2.91 -16,4c0,1 0,2 0,3c-5.06,1.19 -10.06,2.69 -15,4.5c1.33,0.67 1.33,1.33 0,2c-4.85,2.14 -9.85,3.81 -15,5c0.33,0.33 0.67,0.67 1,1c-4.26,1.63 -8.43,3.8 -12.5,6.5c-1.84,-1.33 -2.34,-1.17 -1.5,0.5c-10.26,4.98 -21.26,10.64 -33,17c-1.29,0.49 -2.63,0.66 -4,0.5c0,1 0,2 0,3c-4.53,0.93 -8.86,2.43 -13,4.5c0.33,0.33 0.67,0.67 1,1c-4.37,2.69 -9.04,4.52 -14,5.5c0,1 0,2 0,3c-4.03,1.4 -8.03,2.73 -12,4c0,1 0,2 0,3c-3.79,0.96 -7.29,2.63 -10.5,5c-0.33,-0.33 -0.67,-0.67 -1,-1c-0.48,0.95 -0.65,1.95 -0.5,3c-2.73,0.53 -5.4,1.36 -8,2.5c-0.58,1.42 -1.58,2.25 -3,2.5zm84,-320c16.1,-0.09 32.1,0.74 48,2.5c1.33,0.33 2.67,0.67 4,1c-0.33,0.33 -0.67,0.67 -1,1c10.08,0.13 19.75,1.96 29,5.5c2.21,-1.13 4.21,-0.96 6,0.5c-0.33,0.33 -0.67,0.67 -1,1c6.2,0.29 11.87,1.96 17,5c10.5,2.44 20.5,5.94 30,10.5c10.11,4.89 20.11,10.05 30,15.5c-7.05,3.23 -13.72,7.06 -20,11.5c-3.21,-1.21 -6.21,-2.71 -9,-4.5c-9.06,-1.94 -18.06,-3.78 -27,-5.5c-0.21,-0.59 -0.54,-1.09 -1,-1.5c-10.85,-0.67 -21.68,-1.5 -32.5,-2.5c-10.34,1.47 -21.5,2.3 -33.5,2.5c1.13,1.02 0.8,1.68 -1,2c-7.85,0.62 -15.35,2.45 -22.5,5.5c-2.31,-1.44 -4.14,-0.94 -5.5,1.5c-4.99,0.96 -9.49,2.79 -13.5,5.5c-0.33,-0.33 -0.67,-0.67 -1,-1c-5.9,2.67 -11.74,5.83 -17.5,9.5c-2.6,1.14 -5.27,1.97 -8,2.5c0,1 0,2 0,3c-2.18,0.09 -4.18,0.75 -6,2c-5.91,4.49 -11.91,8.83 -18,13c-4.99,4.99 -9.99,9.99 -15,15c-0.89,0.82 -1.22,1.82 -1,3c-1.18,-0.22 -2.18,0.11 -3,1c-13.31,15.06 -24.48,32.72 -33.5,53c-0.33,-0.33 -0.67,-0.67 -1,-1c-1.48,6.62 -3.65,12.95 -6.5,19c-2.25,9.74 -4.42,19.41 -6.5,29c-0.33,-0.33 -0.67,-0.67 -1,-1c-0.45,11.69 -1.28,23.36 -2.5,35c1.13,14.76 2.63,28.76 4.5,42c-10.12,6.97 -19.95,14.31 -29.5,22c-5.95,5.96 -12.11,11.62 -18.5,17c-0.33,-0.33 -0.67,-0.67 -1,-1c-0.48,0.95 -0.65,1.95 -0.5,3c-17.59,12.57 -34.25,26.4 -50,41.5c-3.58,2.77 -7.25,5.27 -11,7.5c0.02,1.64 -0.65,2.98 -2,4c-8.32,5.72 -15.82,12.39 -22.5,20c-0.33,-0.33 -0.67,-0.67 -1,-1c-0.25,1.12 -0.75,2.12 -1.5,3c-1.83,-3.81 -2.99,-7.81 -3.5,-12c-0.67,1.33 -1.33,1.33 -2,0c-2,-7.52 -3.67,-15.19 -5,-23c-1.02,1.13 -1.68,0.8 -2,-1c-2.65,-12.87 -4.31,-25.87 -5,-39c-0.67,2.67 -1.33,2.67 -2,0c-0.67,-20.67 -0.67,-41.33 0,-62c0.32,-1.8 0.98,-2.13 2,-1c0.72,-13.65 2.72,-26.98 6,-40c0.33,0.33 0.67,0.67 1,1c1.19,-7.77 2.86,-15.44 5,-23c0.67,-1.33 1.33,-1.33 2,0c1.21,-6.51 2.88,-12.84 5,-19c0.67,-1.33 1.33,-1.33 2,0c1.19,-5.15 2.86,-10.15 5,-15c9.1,-16.64 18.77,-32.31 29,-47c0.33,0.33 0.67,0.67 1,1c1.5,-3.67 3.5,-7 6,-10c0.33,0.33 0.67,0.67 1,1c1.32,-2.33 2.66,-4.66 4,-7c0.33,0.33 0.67,0.67 1,1c1.25,-4 3.75,-6.66 7.5,-8c0.84,-2.69 2.34,-5.02 4.5,-7c0.67,-1.33 1.33,-1.33 2,0c1.42,-3.59 3.92,-5.92 7.5,-7c-0.02,-1.64 0.65,-2.98 2,-4c8.67,-7 17.33,-14 26,-21c1.54,-0.95 3.21,-1.29 5,-1c0.67,-1.67 1.33,-3.33 2,-5c1.79,0.29 3.46,-0.05 5,-1c9.82,-7.38 20.48,-13.21 32,-17.5c1.28,-1.65 2.94,-2.81 5,-3.5c9.5,-4.56 19.5,-8.06 30,-10.5c0.46,-0.41 0.79,-0.91 1,-1.5c5.26,-1.61 10.6,-2.95 16,-4c1.09,-1.8 2.76,-2.14 5,-1c9.25,-3.54 18.92,-5.37 29,-5.5c-0.33,-0.33 -0.67,-0.67 -1,-1c8.61,-1.21 17.27,-1.88 26,-2c0.92,-0.28 1.58,-0.78 2,-1.5zm-152,638c1.55,0.32 2.22,1.32 2,3c1.79,-0.28 3.46,0.05 5,1c16.38,9.2 32.71,17.03 49,23.5c-0.33,0.33 -0.67,0.67 -1,1c6.8,1.56 13.47,3.56 20,6c-0.33,0.33 -0.67,0.67 -1,1c4.67,1 9.33,2 14,3c1.13,2.17 2.63,2.67 4.5,1.5c6.33,2.52 12.83,4.35 19.5,5.5c1,0.33 2,0.67 3,1c-0.33,0.33 -0.67,0.67 -1,1c11.62,1.99 23.29,3.66 35,5c1.33,0.67 1.33,1.33 0,2c41.33,3.33 82.67,3.33 124,0c-1.13,-1.02 -0.8,-1.68 1,-2c11.42,-1.29 22.75,-3.12 34,-5.5c0.21,-0.59 0.54,-1.09 1,-1.5c9.35,-1.01 18.01,-3.34 26,-7c4.33,-1 8.67,-2 13,-3c-1.13,-1.02 -0.8,-1.68 1,-2c19.9,-5.86 37.57,-13.53 53,-23c2.92,-1.23 5.92,-2.23 9,-3c-1.33,-0.67 -1.33,-1.33 0,-2c2.87,-1.38 5.87,-2.22 9,-2.5c0.06,-2.09 1.06,-3.59 3,-4.5c18.04,-9.96 34.54,-21.46 49.5,-34.5c19.74,-15.24 37.24,-32.57 52.5,-52c0.83,-0.89 1.83,-1.22 3,-1c5.24,-8.09 10.74,-16.09 16.5,-24c0.67,-1.33 1.33,-1.33 2,0c1.33,-3.5 3,-6.83 5,-10c0.67,-1.33 1.33,-1.33 2,0c4.27,-7.15 8.27,-14.49 12,-22c0.67,-1.33 1.33,-1.33 2,0c4.31,-8.5 8.31,-17.17 12,-26c0.67,-1.33 1.33,-1.33 2,0c1.65,-5.47 3.65,-10.8 6,-16c0.33,0.33 0.67,0.67 1,1c0.95,-3.67 1.78,-7.34 2.5,-11c1,0 2,0 3,0c1.33,-6 2.67,-12 4,-18c1,0 2,0 3,0c1.18,-7.04 2.68,-14.04 4.5,-21c0.67,-1.33 1.33,-1.33 2,0c0.33,-3 0.67,-6 1,-9c0.33,0.33 0.67,0.67 1,1c1,-6 2,-12 3,-18c0.67,-1.33 1.33,-1.33 2,0c1.56,-13.54 3.56,-26.87 6,-40c0.33,0.33 0.67,0.67 1,1c3.33,-35.67 3.33,-71.33 0,-107c-1.02,1.13 -1.68,0.8 -2,-1c-1.37,-12.71 -3.03,-25.37 -5,-38c-1.02,1.13 -1.68,0.8 -2,-1c-1.75,-8.56 -3.25,-17.22 -4.5,-26c-1.17,0.22 -2.17,-0.11 -3,-1c3.27,-0.99 6.6,-1.32 10,-1c1.6,8.63 3.1,17.3 4.5,26c0.67,-1.33 1.33,-1.33 2,0c1.3,7.63 2.3,15.29 3,23c0.33,-0.33 0.67,-0.67 1,-1c0.33,5.33 0.67,10.67 1,16c1.02,-1.13 1.68,-0.8 2,1c2.49,31.17 3.15,62.5 2,94c-3.07,18.07 -6.07,37.07 -9,57c-0.32,1.8 -0.98,2.13 -2,1c-1.37,8.8 -3.04,17.47 -5,26c-0.67,1.33 -1.33,1.33 -2,0c-1.21,7.56 -3.21,14.89 -6,22c-0.33,-0.33 -0.67,-0.67 -1,-1c-1.26,6.11 -2.93,12.11 -5,18c-0.67,1.33 -1.33,1.33 -2,0c-1.45,5.45 -3.12,10.78 -5,16c-0.67,1.33 -1.33,1.33 -2,0c-0.6,3.46 -1.6,6.79 -3,10c-3.54,4.08 -5.71,8.75 -6.5,14c-1,0 -2,0 -3,0c-1.33,4 -2.67,8 -4,12c-1,0 -2,0 -3,0c-0.93,3.86 -2.43,7.53 -4.5,11c-0.67,1.33 -1.33,1.33 -2,0c-0.98,3.97 -2.65,7.64 -5,11c-2.64,2.41 -4.97,5.74 -7,10c-0.67,1.33 -1.33,1.33 -2,0c-1.45,3.41 -2.95,6.74 -4.5,10c-1,0 -2,0 -3,0c-1.33,3 -2.67,6 -4,9c-1,0 -2,0 -3,0c-1.3,3.26 -3.13,6.26 -5.5,9c-0.33,-0.33 -0.67,-0.67 -1,-1c-0.7,3.19 -2.53,5.19 -5.5,6c0.22,1.17 -0.11,2.17 -1,3c-27.54,29.84 -57.54,55.17 -90,76c-1.54,0.95 -3.21,1.28 -5,1c0.15,1.05 -0.02,2.05 -0.5,3c-1.84,-1.33 -2.34,-1.17 -1.5,0.5c-3.95,1.55 -7.45,3.72 -10.5,6.5c-0.72,-0.95 -1.55,-1.12 -2.5,-0.5c-3.71,2.61 -7.54,5.11 -11.5,7.5c-0.33,-0.33 -0.67,-0.67 -1,-1c-0.37,0.92 -0.87,1.75 -1.5,2.5c-3.21,1.4 -6.54,2.4 -10,3c0.33,0.33 0.67,0.67 1,1c-1.49,1.37 -2.99,1.53 -4.5,0.5c-0.69,0.52 -1.19,1.19 -1.5,2c-9.86,3.91 -19.52,8.07 -29,12.5c-12.74,2.72 -25.08,6.39 -37,11c-3,0.33 -6,0.67 -9,1c1.33,0.67 1.33,1.33 0,2c-11.73,1.91 -23.4,3.58 -35,5c1.13,1.02 0.8,1.68 -1,2c-20.97,1.88 -41.97,3.38 -63,4.5c-21.36,-1.17 -42.69,-2.67 -64,-4.5c-2.67,-0.67 -2.67,-1.33 0,-2c-12.6,-1.14 -24.93,-3.14 -37,-6c0.33,-0.33 0.67,-0.67 1,-1c-8.48,-1.33 -16.81,-3 -25,-5c-1.33,-0.67 -1.33,-1.33 0,-2c-7.06,-1.64 -14.06,-3.14 -21,-4.5c0,-1 0,-2 0,-3c-10.87,-1.88 -20.87,-5.88 -30,-12c-1.31,0.96 -2.65,0.79 -4,-0.5c0.33,-0.33 0.67,-0.67 1,-1c-4.57,-0.45 -8.4,-2.28 -11.5,-5.5c-0.33,0.33 -0.67,0.67 -1,1c-1.07,-0.69 -2.23,-1.19 -3.5,-1.5c0.33,-0.33 0.67,-0.67 1,-1c-3.87,-1 -7.2,-2.83 -10,-5.5c-0.59,0.21 -1.09,0.54 -1.5,1c-3.68,-2.67 -7.34,-5.34 -11,-8c-0.33,0.33 -0.67,0.67 -1,1c-0.37,-0.92 -0.87,-1.75 -1.5,-2.5c-4.99,-2.65 -9.99,-5.32 -15,-8c-17.02,-11.93 -33.02,-24.43 -48,-37.5c-3.36,-3.53 -6.53,-7.19 -9.5,-11c-0.33,0.33 -0.67,0.67 -1,1c-4.95,-4.5 -9.12,-9.5 -12.5,-15c-1.18,0.22 -2.18,-0.11 -3,-1c-7.09,-6.93 -13.26,-14.59 -18.5,-23c-0.67,1.33 -1.33,1.33 -2,0c-1.53,-1.73 -2.53,-3.73 -3,-6c-0.33,0.33 -0.67,0.67 -1,1c-0.33,-1.33 -0.67,-2.67 -1,-4c-0.33,0.33 -0.67,0.67 -1,1c-2.5,-3 -4.33,-6.34 -5.5,-10c-1,0 -2,0 -3,0c-0.7,-2.41 -1.7,-4.74 -3,-7c-4,-5.66 -8,-11.33 -12,-17c-0.8,-1.58 -1.3,-3.24 -1.5,-5c-0.67,1.33 -1.33,1.33 -2,0c-0.49,-1.63 -0.66,-3.3 -0.5,-5c2.09,-0.06 3.59,-1.06 4.5,-3c0.32,1.8 0.98,2.13 2,1c0.49,1.63 0.66,3.3 0.5,5c3.42,0.93 5.25,3.27 5.5,7c0.67,-1.33 1.33,-1.33 2,0c5.2,9.05 11.04,17.71 17.5,26c0.93,1.19 1.26,2.52 1,4c1.17,-0.22 2.18,0.11 3,1c4.01,4.48 7.68,9.81 11,16c1.64,-0.02 2.98,0.65 4,2c3.78,4.43 7.12,9.1 10,14c1.18,-0.22 2.18,0.11 3,1c25.56,26.74 54.56,49.74 87,69zm-21,-101c2.94,3.04 6.11,5.7 9.5,8c0.33,-0.33 0.67,-0.67 1,-1c0.48,0.95 0.65,1.95 0.5,3c3.67,-0.3 6.34,1.2 8,4.5c3.44,2.05 7.1,3.55 11,4.5c0,1 0,2 0,3c7.65,2.27 14.81,5.61 21.5,10c1.16,-1.07 1.99,-0.73 2.5,1c19.34,8.84 39.34,15.67 60,20.5c-0.33,0.33 -0.67,0.67 -1,1c14.75,1.89 29.41,3.89 44,6c-0.33,0.33 -0.67,0.67 -1,1c19.67,0.67 39.33,0.67 59,0c-0.67,-0.33 -1.33,-0.67 -2,-1c14.6,-2.11 29.26,-4.11 44,-6c0.46,-0.41 0.79,-0.91 1,-1.5c7.98,-1.97 15.98,-3.8 24,-5.5c-1.13,-1.02 -0.8,-1.68 1,-2c11.51,-3.11 22.51,-7.27 33,-12.5c0.51,-1.73 1.34,-2.07 2.5,-1c6.63,-4.57 13.8,-7.9 21.5,-10c0,-1 0,-2 0,-3c2.18,-0.09 4.18,-0.75 6,-2c3.01,-1.51 5.68,-3.51 8,-6c1.54,-0.95 3.21,-1.28 5,-1c0.67,-1.67 1.33,-3.33 2,-5c1.7,-0.47 3.2,-0.47 4.5,0c1.37,-1.86 2.87,-3.53 4.5,-5c5.07,-3.71 10.24,-8.05 15.5,-13c0.33,0.33 0.67,0.67 1,1c5.2,-5.2 10.7,-10.86 16.5,-17c0.83,-0.89 1.83,-1.22 3,-1c-0.15,-1.05 0.02,-2.05 0.5,-3c0.33,0.33 0.67,0.67 1,1c0.76,-2.93 2.59,-4.6 5.5,-5c9.11,-11.82 18.11,-23.82 27,-36c4.15,-5.61 7.65,-11.61 10.5,-18c0.67,-1.33 1.33,-1.33 2,0c4.77,-8.58 8.77,-17.58 12,-27c0.67,-1.33 1.33,-1.33 2,0c1.67,-5.72 3.34,-11.39 5,-17c0.67,-1.33 1.33,-1.33 2,0c1.67,-6.73 3.34,-13.4 5,-20c0.67,-1.33 1.33,-1.33 2,0c1.52,-9.54 3.52,-18.87 6,-28c0.33,0.33 0.67,0.67 1,1c1.42,-9.99 2.75,-19.99 4,-30c1.71,-33.2 0.38,-66.2 -4,-99c-1.02,1.13 -1.68,0.8 -2,-1c-0.33,-3 -0.67,-6 -1,-9c-0.5,-0.5 -1,-1 -1.5,-1.5c-4.33,-0.67 -8.67,-0.67 -13,0c-10.57,1.23 -21.24,2.57 -32,4c-5.1,2.23 -10.43,3.73 -16,4.5c2.04,76.3 -30.29,133.47 -97,171.5c-7.41,2.46 -14.41,5.46 -21,9c-9.41,1.46 -18.41,3.8 -27,7c-25.42,3.83 -50.75,2.83 -76,-3c0.33,-0.33 0.67,-0.67 1,-1c-9.75,-1.3 -18.75,-4.3 -27,-9c-7.52,-2.19 -14.35,-5.69 -20.5,-10.5c-0.33,0.33 -0.67,0.67 -1,1c-1,-1.67 -2.33,-3 -4,-4c-0.33,0.33 -0.67,0.67 -1,1c-6.86,-4.74 -13.52,-10.41 -20,-17c-0.33,0.33 -0.67,0.67 -1,1c-4.97,-4.89 -9.81,-9.89 -14.5,-15c-1.53,-1.79 -2.53,-3.79 -3,-6c-1.18,0.22 -2.18,-0.11 -3,-1c-2.35,-3.37 -4.68,-6.7 -7,-10c3.71,-4.36 8.38,-7.36 14,-9c3.35,-3.18 7.35,-5.18 12,-6c0,-1 0,-2 0,-3c4.13,-0.98 8.13,-2.31 12,-4c0,-1 0,-2 0,-3c4.23,-0.2 7.73,-1.86 10.5,-5c0.72,0.95 1.55,1.12 2.5,0.5c1.44,-1.57 2.94,-3.07 4.5,-4.5c0.33,0.33 0.67,0.67 1,1c1.8,-1.64 3.8,-2.98 6,-4c0.33,0.33 0.67,0.67 1,1c0.48,-0.95 0.65,-1.95 0.5,-3c7.48,-2.82 15.15,-5.82 23,-9c-0.15,-2.44 0.69,-3.11 2.5,-2c3.44,-2.58 7.28,-4.24 11.5,-5c0,-1 0,-2 0,-3c3.48,-0.39 6.82,-1.39 10,-3c7.98,-4.1 15.98,-8.26 24,-12.5c3.67,-0.95 7.33,-1.78 11,-2.5c0,-1 0,-2 0,-3c3.39,-0.52 6.72,-1.35 10,-2.5c-0.33,-0.33 -0.67,-0.67 -1,-1c2.31,-0.5 4.64,-0.66 7,-0.5c0,-1 0,-2 0,-3c5.32,-1.43 10.66,-2.93 16,-4.5c3.45,-2.78 7.45,-4.45 12,-5c0.63,-0.75 1.13,-1.58 1.5,-2.5c1.01,0.84 2.18,1.17 3.5,1c0,-1 0,-2 0,-3c5.62,-0.25 10.78,-1.91 15.5,-5c0.41,0.46 0.91,0.79 1.5,1c10.77,-6.24 22.44,-10.24 35,-12c0,-1 0,-2 0,-3c7,-1.33 14,-2.67 21,-4c0,-1 0,-2 0,-3c7.7,-1.39 15.36,-3.05 23,-5c0.21,-0.59 0.54,-1.09 1,-1.5c4.78,-1.73 9.78,-2.73 15,-3c11.17,-4.37 22.83,-7.37 35,-9c0.46,-0.41 0.79,-0.91 1,-1.5c9.83,-2.27 19.83,-4.11 30,-5.5c0.46,-0.41 0.79,-0.91 1,-1.5c7.16,-2.07 14.5,-3.24 22,-3.5c-0.33,-0.33 -0.67,-0.67 -1,-1c4.33,-0.33 8.67,-0.67 13,-1c0.46,-0.41 0.79,-0.91 1,-1.5c8.94,-1.63 17.94,-2.96 27,-4c0.52,-0.69 1.19,-1.19 2,-1.5c16.71,-1.83 33.38,-3.5 50,-5c0.83,-0.92 1.83,-1.58 3,-2c5.33,-0.67 10.67,-0.67 16,0c0.83,0.83 1.67,1.67 2.5,2.5c1.14,5.64 2.14,11.31 3,17c1.02,-1.13 1.68,-0.8 2,1c2.16,10.5 3.83,21.17 5,32c1.02,-1.13 1.68,-0.8 2,1c3.95,30.79 5.11,61.79 3.5,93c-0.57,12.5 -1.74,24.83 -3.5,37c-0.32,1.8 -0.98,2.13 -2,1c-1.01,11.53 -3.01,22.87 -6,34c-0.33,-0.33 -0.67,-0.67 -1,-1c-0.72,5.39 -1.72,10.72 -3,16c-2.09,2.54 -3.09,5.54 -3,9c-0.33,-0.33 -0.67,-0.67 -1,-1c-0.82,4.38 -1.82,8.71 -3,13c-3.09,5.59 -5.42,11.59 -7,18c-0.67,1.33 -1.33,1.33 -2,0c-1.2,5.15 -2.86,10.15 -5,15c-4.48,9.09 -9.14,18.09 -14,27c-0.67,1.33 -1.33,1.33 -2,0c-1.33,4.16 -3,8.16 -5,12c-0.67,1.33 -1.33,1.33 -2,0c-3.58,7.87 -7.41,14.87 -11.5,21c-1,0 -2,0 -3,0c-0.38,2.43 -1.05,4.76 -2,7c-1,0 -2,0 -3,0c-1.33,3 -2.67,6 -4,9c-1,0 -2,0 -3,0c-0.9,2.95 -2.4,5.61 -4.5,8c-0.67,1.33 -1.33,1.33 -2,0c-1.34,3.15 -2.84,6.15 -4.5,9c-3.33,2.33 -6.67,4.67 -10,7c-0.84,2.69 -2.34,5.02 -4.5,7c-2.63,1.96 -5.3,4.63 -8,8c-0.33,-0.33 -0.67,-0.67 -1,-1c-1.42,3.59 -3.92,5.92 -7.5,7c0.02,1.64 -0.65,2.98 -2,4c-6.95,4.63 -13.28,9.97 -19,16c-8.81,5.2 -16.97,11.2 -24.5,18c-0.33,-0.33 -0.67,-0.67 -1,-1c-7.31,5.92 -15.14,11.25 -23.5,16c-13.49,6.24 -26.82,12.74 -40,19.5c-7.57,2.63 -14.9,5.63 -22,9c-4.6,1.32 -9.26,2.32 -14,3c1.15,0.91 0.99,1.75 -0.5,2.5c-0.33,-0.33 -0.67,-0.67 -1,-1c-15.87,5.16 -32.03,9.49 -48.5,13c-4.19,-1.36 -8.19,-0.86 -12,1.5c-38,3.33 -76,3.33 -114,0c-4.01,-2.38 -8.18,-2.88 -12.5,-1.5c-4.49,-2.35 -9.32,-3.52 -14.5,-3.5c-11.25,-3.27 -22.59,-6.27 -34,-9c-1.8,-0.32 -2.13,-0.98 -1,-2c-4.98,-0.41 -9.65,-1.74 -14,-4c-1.97,-0.5 -3.97,-0.66 -6,-0.5c0,-1 0,-2 0,-3c-2.42,0.31 -4.76,-0.03 -7,-1c-8.15,-3.91 -16.82,-8.08 -26,-12.5c-4.52,-2.04 -9.19,-3.54 -14,-4.5c0,-1 0,-2 0,-3c-4.62,-0.58 -8.45,-2.58 -11.5,-6c-0.33,0.33 -0.67,0.67 -1,1c-2.28,-2.52 -5.11,-4.19 -8.5,-5c-7.01,-5.47 -14.01,-10.14 -21,-14c-1.23,-1.09 -2.06,-2.42 -2.5,-4c-1.49,0.7 -2.99,0.36 -4.5,-1c-3.43,-3.76 -7.43,-6.76 -12,-9c-1.58,-1.95 -3.08,-3.95 -4.5,-6c-0.33,0.33 -0.67,0.67 -1,1c-2.68,-2.51 -5.51,-4.84 -8.5,-7c-2.19,-1.51 -3.52,-3.51 -4,-6c-1.18,0.22 -2.18,-0.11 -3,-1c-10.71,-10.41 -21.54,-21.41 -32.5,-33c-2.09,-2.39 -3.59,-5.05 -4.5,-8c-3.99,-1.61 -6.32,-4.61 -7,-9c-1,0 -2,0 -3,0c-6.32,-10.64 -13.16,-20.98 -20.5,-31c-6.86,-8.78 -5.03,-15.11 5.5,-19c0.89,-0.83 1.22,-1.83 1,-3c2.92,-1.4 5.75,-3.07 8.5,-5c0.33,0.33 0.67,0.67 1,1c1.85,-4.12 5.02,-6.46 9.5,-7c0.15,-3.22 0.98,-3.55 2.5,-1c0.33,-0.33 0.67,-0.67 1,-1c2.38,3.42 4.21,7.09 5.5,11c1,0 2,0 3,0c0.16,2.65 1.16,4.99 3,7c4.74,5.86 9.24,11.86 13.5,18c0.33,-0.33 0.67,-0.67 1,-1c2.37,2.74 4.2,5.74 5.5,9c3.67,1 6,3.33 7,7c2.91,0.4 4.74,2.07 5.5,5c0.33,-0.33 0.67,-0.67 1,-1c0.48,0.95 0.65,1.95 0.5,3c3.67,1 6,3.33 7,7c6.66,2.93 12.66,7.6 18,14c0.93,1.14 1.76,1.14 2.5,0c0.72,0.54 1.22,1.21 1.5,2zm468,-304c0.82,2.47 1.32,5.13 1.5,8c0.33,-0.33 0.67,-0.67 1,-1c0.33,6 0.67,12 1,18c0.67,-2.67 1.33,-2.67 2,0c7.11,103.32 -26.39,187.65 -100.5,253c-8.01,5.53 -15.51,11.53 -22.5,18c-0.33,-0.33 -0.67,-0.67 -1,-1c-3.62,3.3 -7.45,6.3 -11.5,9c-6.74,4.04 -13.74,7.54 -21,10.5c-0.53,2.11 -1.53,2.61 -3,1.5c-4.82,2.87 -9.82,5.54 -15,8c-0.59,-0.21 -1.09,-0.54 -1.5,-1c-1.62,2.13 -3.79,3.46 -6.5,4c-2.24,0.97 -4.58,1.31 -7,1c0,1 0,2 0,3c-6.97,1.37 -13.97,3.03 -21,5c-0.21,0.59 -0.54,1.09 -1,1.5c-10.6,2.23 -21.26,4.06 -32,5.5c-0.21,0.59 -0.54,1.09 -1,1.5c-29.39,3.33 -58.73,3.33 -88,0c-0.46,-0.41 -0.79,-0.91 -1,-1.5c-10.13,-1.16 -20.13,-2.99 -30,-5.5c-7.63,-3.33 -15.63,-5.5 -24,-6.5c0,-1 0,-2 0,-3c-2.42,0.31 -4.76,-0.03 -7,-1c-38.87,-15.72 -73.03,-38.38 -102.5,-68c-4.03,-5 -8.03,-9.33 -12,-13c-2.32,-2.64 -3.98,-5.64 -5,-9c-0.67,1.33 -1.33,1.33 -2,0c-2.32,-2.64 -3.98,-5.64 -5,-9c-0.67,1.33 -1.33,1.33 -2,0c-1.74,-3.78 -4.07,-7.11 -7,-10c-1.22,-2.01 -2.05,-4.17 -2.5,-6.5c0.25,-1.72 0.91,-3.22 2,-4.5c6.14,-4.2 12.14,-8.53 18,-13c1.82,-1.25 3.82,-1.91 6,-2c1.02,-3.34 3.35,-5.34 7,-6c6,-4.67 12,-9.33 18,-14c1.54,-0.95 3.21,-1.28 5,-1c0.06,-2.09 1.06,-3.59 3,-4.5c5.12,-4.07 10.79,-7.4 17,-10c-0.33,-0.33 -0.67,-0.67 -1,-1c5.11,-3.18 10.11,-6.52 15,-10c2.45,-0.73 4.79,-1.73 7,-3c-0.33,-0.33 -0.67,-0.67 -1,-1c11.17,-6.06 21.67,-12.89 31.5,-20.5c1.84,1.33 2.34,1.17 1.5,-0.5c2.86,-1.64 5.86,-2.81 9,-3.5c-0.15,-2.44 0.69,-3.11 2.5,-2c0.25,-1.12 0.75,-2.12 1.5,-3c1.7,2.07 2.87,4.41 3.5,7c0.33,-0.33 0.67,-0.67 1,-1c2.5,3 4.33,6.34 5.5,10c1.18,-0.22 2.18,0.11 3,1c3.76,4.38 7.76,8.55 12,12.5c4.65,4.65 9.65,9.65 15,15c9.62,6.74 18.95,13.08 28,19c0.95,0.62 1.78,0.45 2.5,-0.5c0.37,0.92 0.87,1.75 1.5,2.5c2.87,1.38 5.87,2.22 9,2.5c0,1 0,2 0,3c1.32,0.17 2.49,-0.16 3.5,-1c5.12,2.64 10.29,4.98 15.5,7c9.25,2.56 18.59,4.72 28,6.5c-0.67,0.33 -1.33,0.67 -2,1c12.21,0.92 24.37,1.75 36.5,2.5c11.89,-0.38 23.72,-1.38 35.5,-3c0.21,-0.59 0.54,-1.09 1,-1.5c8.69,-1.39 17.36,-3.05 26,-5c-1.13,-1.02 -0.8,-1.68 1,-2c5.39,-1.49 10.73,-3.16 16,-5c7.37,-4.47 15.04,-8.47 23,-12c-0.33,-0.33 -0.67,-0.67 -1,-1c6.67,-3.49 12.51,-7.32 17.5,-11.5c4.25,-3.9 9.09,-7.9 14.5,-12c3.58,-3.52 6.91,-7.18 10,-11c0.83,-0.89 1.83,-1.22 3,-1c0.82,-4.08 3.15,-6.74 7,-8c1.17,-3.66 3,-7 5.5,-10c0.33,0.33 0.67,0.67 1,1c1.34,-4.22 3.51,-7.89 6.5,-11c2.11,-3.89 3.94,-7.89 5.5,-12c0.67,-1.33 1.33,-1.33 2,0c1.67,-5 3.33,-10 5,-15c0.67,-1.33 1.33,-1.33 2,0c1.67,-6.33 3.33,-12.67 5,-19c0.41,-0.46 0.91,-0.79 1.5,-1c2.37,-12.06 4.53,-24.06 6.5,-36c0.33,0.33 0.67,0.67 1,1c0.5,-6.66 0.67,-13.32 0.5,-20c8.62,-1.12 17.29,-1.95 26,-2.5c0.56,-0.38 0.89,-0.88 1,-1.5zm-633,265c0,1.33 -0.67,2 -2,2c0,-1.33 0.67,-2 2,-2zm-2,2c-1.37,3.03 -3.71,5.03 -7,6c1.41,-3.08 3.75,-5.08 7,-6zm-8,7c-0.33,1 -1,1.67 -2,2c0,-1.33 0.67,-2 2,-2z" fill="#0e74b9" id="svg_2" opacity="0.79" style="--darkreader-inline-fill: #0b5d94;"/>
  </g>
  <g id="svg_3">
   <path d="m54.5,691.5c-0.67,-1.33 -0.67,-1.33 0,0z" fill="#fefffe" id="svg_4" opacity="0" style="--darkreader-inline-fill: #cbffcb;"/>
  </g>
 </g>
</svg>