<?xml version="1.0" encoding="UTF-8"?>
<svg version="1.1" xmlns="http://www.w3.org/2000/svg" width="100" height="100">
<path d="M0 0 C1.62035156 -0.02320313 1.62035156 -0.02320313 3.2734375 -0.046875 C7.82792229 -0.02438372 11.11251676 0.0514058 15.21484375 2.125 C17.55331518 5.23613923 17.63788525 7.13317999 17.5625 11 C17.56378906 12.1240625 17.56507812 13.248125 17.56640625 14.40625 C16.88886464 18.10702901 16.04643588 19.33224252 13 21.5 C10.640625 21.890625 10.640625 21.890625 8.25 21.75 C7.05117187 21.69585938 7.05117187 21.69585938 5.828125 21.640625 C5.22484375 21.59421875 4.6215625 21.5478125 4 21.5 C4 23.48 4 25.46 4 27.5 C4.67546875 27.44199219 5.3509375 27.38398437 6.046875 27.32421875 C6.93890625 27.27910156 7.8309375 27.23398437 8.75 27.1875 C9.63171875 27.12949219 10.5134375 27.07148437 11.421875 27.01171875 C14 27.5 14 27.5 16.25 29.48046875 C18.51446869 33.38768817 18.89136439 36.67941277 19.25 41.125 C19.36601562 42.24068359 19.36601562 42.24068359 19.484375 43.37890625 C20.06825674 49.47838517 20 55.31643186 20 61.5 C-6.4 61.5 -32.8 61.5 -60 61.5 C-60 54.57873215 -59.96119548 47.96432988 -59.25 41.125 C-59.188125 40.35800781 -59.12625 39.59101562 -59.0625 38.80078125 C-58.56328488 33.98335533 -57.75335159 30.88881744 -54 27.5 C-52.68 27.5 -51.36 27.5 -50 27.5 C-50 21.89 -50 16.28 -50 10.5 C-41.09 10.5 -32.18 10.5 -23 10.5 C-23 16.11 -23 21.72 -23 27.5 C-16.73 27.5 -10.46 27.5 -4 27.5 C-4 25.52 -4 23.54 -4 21.5 C-4.60328125 21.54640625 -5.2065625 21.5928125 -5.828125 21.640625 C-7.02695313 21.69476562 -7.02695313 21.69476562 -8.25 21.75 C-9.03890625 21.79640625 -9.8278125 21.8428125 -10.640625 21.890625 C-13.96544715 21.34015776 -15.0327248 20.20555601 -17 17.5 C-17.56640625 14.40625 -17.56640625 14.40625 -17.5625 11 C-17.58441406 9.8759375 -17.60632812 8.751875 -17.62890625 7.59375 C-17 4.5 -17 4.5 -15.21484375 2.125 C-10.24387442 -0.38766493 -5.48896428 -0.07860092 0 0 Z M-10 8.5 C-10 10.48 -10 12.46 -10 14.5 C-3.4 14.5 3.2 14.5 10 14.5 C10 12.52 10 10.54 10 8.5 C3.4 8.5 -3.2 8.5 -10 8.5 Z M-43 18.5 C-43.04125 20.10875 -43.0825 21.7175 -43.125 23.375 C-43.14820312 24.27992187 -43.17140625 25.18484375 -43.1953125 26.1171875 C-43.24324836 28.68806994 -43.24324836 28.68806994 -41 30.5 C-38.86181539 30.85609192 -38.86181539 30.85609192 -36.5 30.8125 C-35.7059375 30.82925781 -34.911875 30.84601562 -34.09375 30.86328125 C-33.4028125 30.74339844 -32.711875 30.62351562 -32 30.5 C-29.86413322 27.29619983 -29.76867825 26.48060033 -29.875 22.8125 C-29.91625 21.389375 -29.9575 19.96625 -30 18.5 C-34.29 18.5 -38.58 18.5 -43 18.5 Z M-41 38.5 C-41.66 39.82 -42.32 41.14 -43 42.5 C-40.525 42.995 -40.525 42.995 -38 43.5 C-38 42.18 -38 40.86 -38 39.5 C-38.99 39.17 -39.98 38.84 -41 38.5 Z M-28 38.5 C-28.33 40.15 -28.66 41.8 -29 43.5 C-27.35 43.17 -25.7 42.84 -24 42.5 C-24.33 41.18 -24.66 39.86 -25 38.5 C-25.99 38.5 -26.98 38.5 -28 38.5 Z M-15 38.5 C-15.33 39.82 -15.66 41.14 -16 42.5 C-13.525 42.995 -13.525 42.995 -11 43.5 C-11.33 41.85 -11.66 40.2 -12 38.5 C-12.99 38.5 -13.98 38.5 -15 38.5 Z M-1 38.5 C-1.66 39.82 -2.32 41.14 -3 42.5 C-0.525 42.995 -0.525 42.995 2 43.5 C2 42.18 2 40.86 2 39.5 C1.01 39.17 0.02 38.84 -1 38.5 Z M-35 48.5 C-35.33 49.82 -35.66 51.14 -36 52.5 C-33.525 52.995 -33.525 52.995 -31 53.5 C-31.33 51.85 -31.66 50.2 -32 48.5 C-32.99 48.5 -33.98 48.5 -35 48.5 Z M-21 48.5 C-21.66 49.82 -22.32 51.14 -23 52.5 C-20.525 52.995 -20.525 52.995 -18 53.5 C-18 52.18 -18 50.86 -18 49.5 C-18.99 49.17 -19.98 48.84 -21 48.5 Z M-8 48.5 C-8.33 50.15 -8.66 51.8 -9 53.5 C-7.35 53.17 -5.7 52.84 -4 52.5 C-4.33 51.18 -4.66 49.86 -5 48.5 C-5.99 48.5 -6.98 48.5 -8 48.5 Z " fill="#006AB5" transform="translate(70,5.5)"/>
<path d="M0 0 C26.4 0 52.8 0 80 0 C80 3.63 80 7.26 80 11 C76.2526438 14.7473562 75.08620388 14.37867952 69.9140625 14.38818359 C68.83798737 14.39606903 68.83798737 14.39606903 67.74017334 14.40411377 C65.36822758 14.41732045 62.99695262 14.40857376 60.625 14.3984375 C58.97737499 14.40045805 57.32975085 14.40336934 55.68212891 14.40713501 C52.22875454 14.41155925 48.77561294 14.40512421 45.32226562 14.39111328 C40.8933764 14.37402118 36.46503254 14.38386185 32.03616333 14.40183067 C28.63382856 14.4126659 25.23162331 14.40922341 21.82928467 14.4014473 C20.19618668 14.39944456 18.56307698 14.40190716 16.92999268 14.40888596 C14.64832362 14.41649634 12.36754048 14.40490309 10.0859375 14.38818359 C8.1376001 14.38460342 8.1376001 14.38460342 6.14990234 14.38095093 C3 14 3 14 0 11 C0 7.37 0 3.74 0 0 Z M39 4 C38.34 5.32 37.68 6.64 37 8 C38.98 8.99 38.98 8.99 41 10 C41.66 8.68 42.32 7.36 43 6 C41.68 5.34 40.36 4.68 39 4 Z " fill="#006AB4" transform="translate(10,73)"/>
</svg>
